ffplay version 8.0.1-essentials_build-www.gyan.dev Copyright (c) 2003-2025 the FFmpeg developers
  built with gcc 15.2.0 (Rev8, Built by MSYS2 project)
  configuration: --enable-gpl --enable-version3 --enable-static --disable-w32threads --disable-autodetect --enable-fontconfig --enable-iconv --enable-gnutls --enable-libxml2 --enable-gmp --enable-bzlib --enable-lzma --enable-zlib --enable-libsrt --enable-libssh --enable-libzmq --enable-avisynth --enable-sdl2 --enable-libwebp --enable-libx264 --enable-libx265 --enable-libxvid --enable-libaom --enable-libopenjpeg --enable-libvpx --enable-mediafoundation --enable-libass --enable-libfreetype --enable-libfribidi --enable-libharfbuzz --enable-libvidstab --enable-libvmaf --enable-libzimg --enable-amf --enable-cuda-llvm --enable-cuvid --enable-dxva2 --enable-d3d11va --enable-d3d12va --enable-ffnvcodec --enable-libvpl --enable-nvdec --enable-nvenc --enable-vaapi --enable-openal --enable-libgme --enable-libopenmpt --enable-libopencore-amrwb --enable-libmp3lame --enable-libtheora --enable-libvo-amrwbenc --enable-libgsm --enable-libopencore-amrnb --enable-libopus --enable-libspeex --enable-libvorbis --enable-librubberband
  libavutil      60.  8.100 / 60.  8.100
  libavcodec     62. 11.100 / 62. 11.100
  libavformat    62.  3.100 / 62.  3.100
  libavdevice    62.  1.100 / 62.  1.100
  libavfilter    11.  4.100 / 11.  4.100
  libswscale      9.  1.100 /  9.  1.100
  libswresample   6.  1.100 /  6.  1.100
    nan    :  0.000 fd=   0 aq=    0KB vq=    0KB sq=    0B [mp3 @ 0000026ba068d380] Estimating duration from bitrate, this may be inaccurate
Input #0, mp3, from 'c:\Users\zfj-AUTHOR\Desktop\VSC\Cluster-20251215T135848Z-1-001\Cluster\controller\resource\tts_temp\tts_14f0ea6a4c35450dbd216b14d0c93125.mp3':
  Duration: 00:00:05.18, start: 0.000000, bitrate: 48 kb/s
  Stream #0:0: Audio: mp3 (mp3float), 24000 Hz, mono, fltp, 48 kb/s
    nan M-A:    nan fd=   0 aq=    6KB vq=    0KB sq=    0B   -0.02 M-A: -0.000 fd=   0 aq=    6KB vq=    0KB sq=    0B    0.02 M-A:  0.000 fd=   0 aq=    6KB vq=    0KB sq=    0B    0.05 M-A:  0.000 fd=   0 aq=    6KB vq=    0KB sq=    0B    0.08 M-A: -0.000 fd=   0 aq=    6KB vq=    0KB sq=    0B    0.10 M-A:  0.000 fd=   0 aq=    6KB vq=    0KB sq=    0B    0.14 M-A:  0.000 fd=   0 aq=    6KB vq=    0KB sq=    0B    0.17 M-A:  0.000 fd=   0 aq=    6KB vq=    0KB sq=    0B    0.20 M-A:  0.000 fd=   0 aq=    6KB vq=    0KB sq=    0B    0.24 M-A:  0.000 fd=   0 aq=    6KB vq=    0KB sq=    0B    0.26 M-A:  0.000 fd=   0 aq=    6KB vq=    0KB sq=    0B    0.29 M-A:  0.000 fd=   0 aq=    6KB vq=    0KB sq=    0B    0.33 M-A: -0.000 fd=   0 aq=    6KB vq=    0KB sq=    0B    0.36 M-A:  0.000 fd=   0 aq=    6KB vq=    0KB sq=    0B    0.39 M-A:  0.000 fd=   0 aq=    6KB vq=    0KB sq=    0B    0.42 M-A:  0.000 fd=   0 aq=    6KB vq=    0KB sq=    0B    0.45 M-A:  0.000 fd=   0 aq=    6KB vq=    0KB sq=    0B    0.48 M-A:  0.000 fd=   0 aq=    6KB vq=    0KB sq=    0B    0.52 M-A:  0.000 fd=   0 aq=    6KB vq=    0KB sq=    0B    0.55 M-A: -0.000 fd=   0 aq=    6KB vq=    0KB sq=    0B    0.57 M-A: -0.000 fd=   0 aq=    6KB vq=    0KB sq=    0B    0.60 M-A: -0.000 fd=   0 aq=    6KB vq=    0KB sq=    0B    0.63 M-A:  0.000 fd=   0 aq=    6KB vq=    0KB sq=    0B    0.67 M-A:  0.000 fd=   0 aq=    6KB vq=    0KB sq=    0B    0.70 M-A:  0.000 fd=   0 aq=    6KB vq=    0KB sq=    0B    0.73 M-A:  0.000 fd=   0 aq=    6KB vq=    0KB sq=    0B    0.76 M-A:  0.000 fd=   0 aq=    6KB vq=    0KB sq=    0B    0.79 M-A:  0.000 fd=   0 aq=    6KB vq=    0KB sq=    0B    0.82 M-A:  0.000 fd=   0 aq=    6KB vq=    0KB sq=    0B    0.86 M-A:  0.000 fd=   0 aq=    6KB vq=    0KB sq=    0B    0.89 M-A:  0.000 fd=   0 aq=    6KB vq=    0KB sq=    0B    0.91 M-A:  0.000 fd=   0 aq=    6KB vq=    0KB sq=    0B    0.95 M-A:  0.000 fd=   0 aq=    6KB vq=    0KB sq=    0B    0.98 M-A: -0.000 fd=   0 aq=    6KB vq=    0KB sq=    0B    1.01 M-A:  0.000 fd=   0 aq=    6KB vq=    0KB sq=    0B    1.04 M-A:  0.000 fd=   0 aq=    6KB vq=    0KB sq=    0B    1.07 M-A:  0.000 fd=   0 aq=    6KB vq=    0KB sq=    0B    1.10 M-A: -0.000 fd=   0 aq=    6KB vq=    0KB sq=    0B    1.13 M-A:  0.000 fd=   0 aq=    6KB vq=    0KB sq=    0B    1.17 M-A:  0.000 fd=   0 aq=    6KB vq=    0KB sq=    0B    1.20 M-A:  0.000 fd=   0 aq=    6KB vq=    0KB sq=    0B    1.22 M-A:  0.000 fd=   0 aq=    6KB vq=    0KB sq=    0B    1.26 M-A:  0.000 fd=   0 aq=    6KB vq=    0KB sq=    0B    1.29 M-A:  0.000 fd=   0 aq=    6KB vq=    0KB sq=    0B    1.33 M-A:  0.000 fd=   0 aq=    6KB vq=    0KB sq=    0B    1.36 M-A:  0.000 fd=   0 aq=    6KB vq=    0KB sq=    0B    1.38 M-A:  0.000 fd=   0 aq=    6KB vq=    0KB sq=    0B    1.42 M-A:  0.000 fd=   0 aq=    6KB vq=    0KB sq=    0B    1.45 M-A:  0.000 fd=   0 aq=    6KB vq=    0KB sq=    0B    1.48 M-A:  0.000 fd=   0 aq=    6KB vq=    0KB sq=    0B    1.52 M-A:  0.000 fd=   0 aq=    6KB vq=    0KB sq=    0B    1.54 M-A:  0.000 fd=   0 aq=    6KB vq=    0KB sq=    0B    1.57 M-A: -0.000 fd=   0 aq=    6KB vq=    0KB sq=    0B    1.60 M-A:  0.000 fd=   0 aq=    6KB vq=    0KB sq=    0B    1.64 M-A:  0.000 fd=   0 aq=    6KB vq=    0KB sq=    0B    1.67 M-A:  0.000 fd=   0 aq=    6KB vq=    0KB sq=    0B    1.70 M-A:  0.000 fd=   0 aq=    6KB vq=    0KB sq=    0B    1.73 M-A:  0.000 fd=   0 aq=    6KB vq=    0KB sq=    0B    1.76 M-A:  0.000 fd=   0 aq=    6KB vq=    0KB sq=    0B    1.79 M-A:  0.000 fd=   0 aq=    6KB vq=    0KB sq=    0B    1.83 M-A:  0.000 fd=   0 aq=    6KB vq=    0KB sq=    0B    1.85 M-A: -0.000 fd=   0 aq=    6KB vq=    0KB sq=    0B    1.88 M-A:  0.000 fd=   0 aq=    6KB vq=    0KB sq=    0B    1.92 M-A:  0.000 fd=   0 aq=    6KB vq=    0KB sq=    0B    1.95 M-A:  0.000 fd=   0 aq=    6KB vq=    0KB sq=    0B    1.98 M-A:  0.000 fd=   0 aq=    6KB vq=    0KB sq=    0B    2.01 M-A:  0.000 fd=   0 aq=    6KB vq=    0KB sq=    0B    2.04 M-A:  0.000 fd=   0 aq=    6KB vq=    0KB sq=    0B    2.07 M-A:  0.000 fd=   0 aq=    6KB vq=    0KB sq=    0B    2.11 M-A: -0.000 fd=   0 aq=    6KB vq=    0KB sq=    0B    2.14 M-A:  0.000 fd=   0 aq=    6KB vq=    0KB sq=    0B    2.17 M-A:  0.000 fd=   0 aq=    6KB vq=    0KB sq=    0B    2.20 M-A: -0.000 fd=   0 aq=    6KB vq=    0KB sq=    0B    2.23 M-A: -0.000 fd=   0 aq=    6KB vq=    0KB sq=    0B    2.27 M-A: -0.000 fd=   0 aq=    6KB vq=    0KB sq=    0B    2.30 M-A: -0.000 fd=   0 aq=    6KB vq=    0KB sq=    0B    2.33 M-A: -0.000 fd=   0 aq=    6KB vq=    0KB sq=    0B    2.35 M-A:  0.000 fd=   0 aq=    6KB vq=    0KB sq=    0B    2.39 M-A: -0.000 fd=   0 aq=    6KB vq=    0KB sq=    0B    2.42 M-A:  0.000 fd=   0 aq=    6KB vq=    0KB sq=    0B    2.45 M-A:  0.000 fd=   0 aq=    6KB vq=    0KB sq=    0B    2.48 M-A:  0.000 fd=   0 aq=    6KB vq=    0KB sq=    0B    2.51 M-A:  0.000 fd=   0 aq=    6KB vq=    0KB sq=    0B    2.54 M-A:  0.000 fd=   0 aq=    6KB vq=    0KB sq=    0B    2.58 M-A:  0.000 fd=   0 aq=    6KB vq=    0KB sq=    0B    2.61 M-A:  0.000 fd=   0 aq=    6KB vq=    0KB sq=    0B    2.64 M-A:  0.000 fd=   0 aq=    6KB vq=    0KB sq=    0B    2.67 M-A:  0.000 fd=   0 aq=    6KB vq=    0KB sq=    0B    2.70 M-A:  0.000 fd=   0 aq=    6KB vq=    0KB sq=    0B    2.73 M-A:  0.000 fd=   0 aq=    6KB vq=    0KB sq=    0B    2.76 M-A:  0.000 fd=   0 aq=    6KB vq=    0KB sq=    0B    2.80 M-A:  0.000 fd=   0 aq=    6KB vq=    0KB sq=    0B    2.82 M-A:  0.000 fd=   0 aq=    6KB vq=    0KB sq=    0B    2.85 M-A: -0.000 fd=   0 aq=    6KB vq=    0KB sq=    0B    2.89 M-A: -0.000 fd=   0 aq=    6KB vq=    0KB sq=    0B    2.92 M-A:  0.000 fd=   0 aq=    6KB vq=    0KB sq=    0B    2.95 M-A:  0.000 fd=   0 aq=    6KB vq=    0KB sq=    0B    2.99 M-A: -0.000 fd=   0 aq=    6KB vq=    0KB sq=    0B    3.01 M-A:  0.000 fd=   0 aq=    6KB vq=    0KB sq=    0B    3.04 M-A:  0.000 fd=   0 aq=    6KB vq=    0KB sq=    0B    3.08 M-A:  0.000 fd=   0 aq=    6KB vq=    0KB sq=    0B    3.11 M-A:  0.000 fd=   0 aq=    6KB vq=    0KB sq=    0B    3.14 M-A:  0.000 fd=   0 aq=    6KB vq=    0KB sq=    0B    3.17 M-A:  0.000 fd=   0 aq=    6KB vq=    0KB sq=    0B    3.20 M-A:  0.000 fd=   0 aq=    6KB vq=    0KB sq=    0B    3.23 M-A:  0.000 fd=   0 aq=    6KB vq=    0KB sq=    0B    3.27 M-A:  0.000 fd=   0 aq=    6KB vq=    0KB sq=    0B    3.29 M-A:  0.000 fd=   0 aq=    6KB vq=    0KB sq=    0B    3.32 M-A:  0.000 fd=   0 aq=    6KB vq=    0KB sq=    0B    3.36 M-A:  0.000 fd=   0 aq=    6KB vq=    0KB sq=    0B    3.39 M-A:  0.000 fd=   0 aq=    6KB vq=    0KB sq=    0B    3.43 M-A:  0.000 fd=   0 aq=    6KB vq=    0KB sq=    0B    3.46 M-A:  0.000 fd=   0 aq=    6KB vq=    0KB sq=    0B    3.48 M-A: -0.000 fd=   0 aq=    6KB vq=    0KB sq=    0B    3.51 M-A:  0.000 fd=   0 aq=    6KB vq=    0KB sq=    0B    3.55 M-A:  0.000 fd=   0 aq=    6KB vq=    0KB sq=    0B    3.58 M-A:  0.000 fd=   0 aq=    6KB vq=    0KB sq=    0B    3.61 M-A:  0.000 fd=   0 aq=    6KB vq=    0KB sq=    0B    3.64 M-A:  0.000 fd=   0 aq=    6KB vq=    0KB sq=    0B    3.67 M-A:  0.000 fd=   0 aq=    6KB vq=    0KB sq=    0B    3.70 M-A: -0.000 fd=   0 aq=    6KB vq=    0KB sq=    0B    3.73 M-A:  0.000 fd=   0 aq=    6KB vq=    0KB sq=    0B    3.76 M-A:  0.000 fd=   0 aq=    6KB vq=    0KB sq=    0B    3.79 M-A:  0.000 fd=   0 aq=    6KB vq=    0KB sq=    0B    3.82 M-A:  0.000 fd=   0 aq=    6KB vq=    0KB sq=    0B    3.85 M-A:  0.000 fd=   0 aq=    6KB vq=    0KB sq=    0B    3.89 M-A:  0.000 fd=   0 aq=    6KB vq=    0KB sq=    0B    3.92 M-A:  0.000 fd=   0 aq=    6KB vq=    0KB sq=    0B    3.95 M-A:  0.000 fd=   0 aq=    6KB vq=    0KB sq=    0B    3.98 M-A:  0.000 fd=   0 aq=    5KB vq=    0KB sq=    0B    4.01 M-A:  0.000 fd=   0 aq=    5KB vq=    0KB sq=    0B    4.04 M-A:  0.000 fd=   0 aq=    5KB vq=    0KB sq=    0B    4.08 M-A:  0.000 fd=   0 aq=    5KB vq=    0KB sq=    0B    4.10 M-A:  0.000 fd=   0 aq=    5KB vq=    0KB sq=    0B    4.13 M-A:  0.000 fd=   0 aq=    5KB vq=    0KB sq=    0B    4.17 M-A: -0.000 fd=   0 aq=    4KB vq=    0KB sq=    0B    4.20 M-A:  0.000 fd=   0 aq=    4KB vq=    0KB sq=    0B    4.23 M-A:  0.000 fd=   0 aq=    4KB vq=    0KB sq=    0B    4.27 M-A:  0.000 fd=   0 aq=    4KB vq=    0KB sq=    0B    4.29 M-A:  0.000 fd=   0 aq=    3KB vq=    0KB sq=    0B    4.32 M-A: -0.000 fd=   0 aq=    3KB vq=    0KB sq=    0B    4.36 M-A:  0.000 fd=   0 aq=    3KB vq=    0KB sq=    0B    4.39 M-A:  0.000 fd=   0 aq=    3KB vq=    0KB sq=    0B    4.41 M-A:  0.000 fd=   0 aq=    3KB vq=    0KB sq=    0B    4.45 M-A: -0.000 fd=   0 aq=    2KB vq=    0KB sq=    0B    4.48 M-A:  0.000 fd=   0 aq=    2KB vq=    0KB sq=    0B    4.51 M-A:  0.000 fd=   0 aq=    2KB vq=    0KB sq=    0B    4.55 M-A:  0.000 fd=   0 aq=    2KB vq=    0KB sq=    0B    4.57 M-A:  0.000 fd=   0 aq=    2KB vq=    0KB sq=    0B    4.60 M-A:  0.000 fd=   0 aq=    2KB vq=    0KB sq=    0B    4.64 M-A:  0.000 fd=   0 aq=    1KB vq=    0KB sq=    0B    4.67 M-A:  0.000 fd=   0 aq=    1KB vq=    0KB sq=    0B    4.70 M-A:  0.000 fd=   0 aq=    1KB vq=    0KB sq=    0B    4.73 M-A:  0.000 fd=   0 aq=    1KB vq=    0KB sq=    0B    4.76 M-A:  0.000 fd=   0 aq=    0KB vq=    0KB sq=    0B    4.79 M-A: -0.000 fd=   0 aq=    0KB vq=    0KB sq=    0B    4.82 M-A:  0.000 fd=   0 aq=    0KB vq=    0KB sq=    0B    4.86 M-A:  0.000 fd=   0 aq=    0KB vq=    0KB sq=    0B    4.89 M-A:  0.000 fd=   0 aq=    0KB vq=    0KB sq=    0B    4.91 M-A:  0.000 fd=   0 aq=    0KB vq=    0KB sq=    0B    4.94 M-A:  0.000 fd=   0 aq=    0KB vq=    0KB sq=    0B    4.98 M-A:  0.000 fd=   0 aq=    0KB vq=    0KB sq=    0B    5.01 M-A:  0.000 fd=   0 aq=    0KB vq=    0KB sq=    0B    5.04 M-A:  0.000 fd=   0 aq=    0KB vq=    0KB sq=    0B    5.07 M-A:  0.000 fd=   0 aq=    0KB vq=    0KB sq=    0B 
ffplay version 8.0.1-essentials_build-www.gyan.dev Copyright (c) 2003-2025 the FFmpeg developers
  built with gcc 15.2.0 (Rev8, Built by MSYS2 project)
  configuration: --enable-gpl --enable-version3 --enable-static --disable-w32threads --disable-autodetect --enable-fontconfig --enable-iconv --enable-gnutls --enable-libxml2 --enable-gmp --enable-bzlib --enable-lzma --enable-zlib --enable-libsrt --enable-libssh --enable-libzmq --enable-avisynth --enable-sdl2 --enable-libwebp --enable-libx264 --enable-libx265 --enable-libxvid --enable-libaom --enable-libopenjpeg --enable-libvpx --enable-mediafoundation --enable-libass --enable-libfreetype --enable-libfribidi --enable-libharfbuzz --enable-libvidstab --enable-libvmaf --enable-libzimg --enable-amf --enable-cuda-llvm --enable-cuvid --enable-dxva2 --enable-d3d11va --enable-d3d12va --enable-ffnvcodec --enable-libvpl --enable-nvdec --enable-nvenc --enable-vaapi --enable-openal --enable-libgme --enable-libopenmpt --enable-libopencore-amrwb --enable-libmp3lame --enable-libtheora --enable-libvo-amrwbenc --enable-libgsm --enable-libopencore-amrnb --enable-libopus --enable-libspeex --enable-libvorbis --enable-librubberband
  libavutil      60.  8.100 / 60.  8.100
  libavcodec     62. 11.100 / 62. 11.100
  libavformat    62.  3.100 / 62.  3.100
  libavdevice    62.  1.100 / 62.  1.100
  libavfilter    11.  4.100 / 11.  4.100
  libswscale      9.  1.100 /  9.  1.100
  libswresample   6.  1.100 /  6.  1.100
    nan    :  0.000 fd=   0 aq=    0KB vq=    0KB sq=    0B [mp3 @ 000001b91a71d380] Estimating duration from bitrate, this may be inaccurate
Input #0, mp3, from 'c:\Users\zfj-AUTHOR\Desktop\VSC\Cluster-20251215T135848Z-1-001\Cluster\controller\resource\tts_temp\tts_cef1f3e2443f46308692c5578d5e15a4.mp3':
  Duration: 00:00:02.28, start: 0.000000, bitrate: 48 kb/s
  Stream #0:0: Audio: mp3 (mp3float), 24000 Hz, mono, fltp, 48 kb/s
  -0.03 M-A:  0.000 fd=   0 aq=    6KB vq=    0KB sq=    0B    0.02 M-A:  0.000 fd=   0 aq=    6KB vq=    0KB sq=    0B    0.05 M-A:  0.000 fd=   0 aq=    6KB vq=    0KB sq=    0B    0.08 M-A:  0.000 fd=   0 aq=    6KB vq=    0KB sq=    0B    0.11 M-A:  0.000 fd=   0 aq=    6KB vq=    0KB sq=    0B    0.14 M-A:  0.000 fd=   0 aq=    6KB vq=    0KB sq=    0B    0.17 M-A: -0.000 fd=   0 aq=    6KB vq=    0KB sq=    0B    0.20 M-A: -0.000 fd=   0 aq=    6KB vq=    0KB sq=    0B    0.24 M-A:  0.000 fd=   0 aq=    6KB vq=    0KB sq=    0B    0.27 M-A:  0.000 fd=   0 aq=    6KB vq=    0KB sq=    0B    0.30 M-A: -0.000 fd=   0 aq=    6KB vq=    0KB sq=    0B    0.32 M-A:  0.000 fd=   0 aq=    6KB vq=    0KB sq=    0B    0.36 M-A:  0.000 fd=   0 aq=    6KB vq=    0KB sq=    0B    0.39 M-A: -0.000 fd=   0 aq=    6KB vq=    0KB sq=    0B    0.42 M-A:  0.000 fd=   0 aq=    6KB vq=    0KB sq=    0B    0.46 M-A:  0.000 fd=   0 aq=    6KB vq=    0KB sq=    0B    0.48 M-A:  0.000 fd=   0 aq=    6KB vq=    0KB sq=    0B    0.52 M-A:  0.000 fd=   0 aq=    6KB vq=    0KB sq=    0B    0.55 M-A:  0.000 fd=   0 aq=    6KB vq=    0KB sq=    0B    0.58 M-A:  0.000 fd=   0 aq=    6KB vq=    0KB sq=    0B    0.60 M-A:  0.000 fd=   0 aq=    6KB vq=    0KB sq=    0B    0.63 M-A:  0.000 fd=   0 aq=    6KB vq=    0KB sq=    0B    0.67 M-A: -0.000 fd=   0 aq=    6KB vq=    0KB sq=    0B    0.70 M-A: -0.000 fd=   0 aq=    6KB vq=    0KB sq=    0B    0.74 M-A:  0.000 fd=   0 aq=    6KB vq=    0KB sq=    0B    0.77 M-A:  0.000 fd=   0 aq=    6KB vq=    0KB sq=    0B    0.79 M-A: -0.000 fd=   0 aq=    6KB vq=    0KB sq=    0B    0.83 M-A:  0.000 fd=   0 aq=    6KB vq=    0KB sq=    0B    0.86 M-A:  0.000 fd=   0 aq=    6KB vq=    0KB sq=    0B    0.89 M-A:  0.000 fd=   0 aq=    6KB vq=    0KB sq=    0B    0.92 M-A:  0.000 fd=   0 aq=    6KB vq=    0KB sq=    0B    0.95 M-A:  0.000 fd=   0 aq=    6KB vq=    0KB sq=    0B    0.98 M-A:  0.000 fd=   0 aq=    6KB vq=    0KB sq=    0B    1.01 M-A:  0.000 fd=   0 aq=    6KB vq=    0KB sq=    0B    1.05 M-A:  0.000 fd=   0 aq=    6KB vq=    0KB sq=    0B    1.08 M-A: -0.000 fd=   0 aq=    5KB vq=    0KB sq=    0B    1.11 M-A:  0.000 fd=   0 aq=    5KB vq=    0KB sq=    0B    1.14 M-A:  0.000 fd=   0 aq=    5KB vq=    0KB sq=    0B    1.17 M-A: -0.000 fd=   0 aq=    5KB vq=    0KB sq=    0B    1.21 M-A:  0.000 fd=   0 aq=    5KB vq=    0KB sq=    0B    1.24 M-A:  0.000 fd=   0 aq=    5KB vq=    0KB sq=    0B    1.26 M-A:  0.000 fd=   0 aq=    4KB vq=    0KB sq=    0B    1.29 M-A:  0.000 fd=   0 aq=    4KB vq=    0KB sq=    0B    1.33 M-A:  0.000 fd=   0 aq=    4KB vq=    0KB sq=    0B    1.36 M-A: -0.000 fd=   0 aq=    4KB vq=    0KB sq=    0B    1.39 M-A:  0.000 fd=   0 aq=    3KB vq=    0KB sq=    0B    1.42 M-A:  0.000 fd=   0 aq=    3KB vq=    0KB sq=    0B    1.45 M-A:  0.000 fd=   0 aq=    3KB vq=    0KB sq=    0B    1.49 M-A:  0.000 fd=   0 aq=    3KB vq=    0KB sq=    0B    1.54 M-A:  0.000 fd=   0 aq=    2KB vq=    0KB sq=    0B    1.57 M-A:  0.000 fd=   0 aq=    2KB vq=    0KB sq=    0B    1.59 M-A:  0.000 fd=   0 aq=    2KB vq=    0KB sq=    0B    1.63 M-A:  0.000 fd=   0 aq=    2KB vq=    0KB sq=    0B    1.66 M-A:  0.000 fd=   0 aq=    2KB vq=    0KB sq=    0B    1.69 M-A:  0.000 fd=   0 aq=    2KB vq=    0KB sq=    0B    1.73 M-A:  0.000 fd=   0 aq=    1KB vq=    0KB sq=    0B    1.75 M-A:  0.000 fd=   0 aq=    1KB vq=    0KB sq=    0B    1.78 M-A: -0.000 fd=   0 aq=    1KB vq=    0KB sq=    0B    1.81 M-A:  0.000 fd=   0 aq=    1KB vq=    0KB sq=    0B    1.85 M-A:  0.000 fd=   0 aq=    0KB vq=    0KB sq=    0B    1.88 M-A: -0.000 fd=   0 aq=    0KB vq=    0KB sq=    0B    1.90 M-A:  0.000 fd=   0 aq=    0KB vq=    0KB sq=    0B    1.94 M-A:  0.000 fd=   0 aq=    0KB vq=    0KB sq=    0B    1.97 M-A:  0.000 fd=   0 aq=    0KB vq=    0KB sq=    0B    2.00 M-A: -0.000 fd=   0 aq=    0KB vq=    0KB sq=    0B    2.04 M-A:  0.000 fd=   0 aq=    0KB vq=    0KB sq=    0B    2.06 M-A:  0.000 fd=   0 aq=    0KB vq=    0KB sq=    0B    2.09 M-A:  0.000 fd=   0 aq=    0KB vq=    0KB sq=    0B    2.12 M-A: -0.000 fd=   0 aq=    0KB vq=    0KB sq=    0B    2.16 M-A:  0.000 fd=   0 aq=    0KB vq=    0KB sq=    0B    2.19 M-A:  0.000 fd=   0 aq=    0KB vq=    0KB sq=    0B 
ffplay version 8.0.1-essentials_build-www.gyan.dev Copyright (c) 2003-2025 the FFmpeg developers
  built with gcc 15.2.0 (Rev8, Built by MSYS2 project)
  configuration: --enable-gpl --enable-version3 --enable-static --disable-w32threads --disable-autodetect --enable-fontconfig --enable-iconv --enable-gnutls --enable-libxml2 --enable-gmp --enable-bzlib --enable-lzma --enable-zlib --enable-libsrt --enable-libssh --enable-libzmq --enable-avisynth --enable-sdl2 --enable-libwebp --enable-libx264 --enable-libx265 --enable-libxvid --enable-libaom --enable-libopenjpeg --enable-libvpx --enable-mediafoundation --enable-libass --enable-libfreetype --enable-libfribidi --enable-libharfbuzz --enable-libvidstab --enable-libvmaf --enable-libzimg --enable-amf --enable-cuda-llvm --enable-cuvid --enable-dxva2 --enable-d3d11va --enable-d3d12va --enable-ffnvcodec --enable-libvpl --enable-nvdec --enable-nvenc --enable-vaapi --enable-openal --enable-libgme --enable-libopenmpt --enable-libopencore-amrwb --enable-libmp3lame --enable-libtheora --enable-libvo-amrwbenc --enable-libgsm --enable-libopencore-amrnb --enable-libopus --enable-libspeex --enable-libvorbis --enable-librubberband
  libavutil      60.  8.100 / 60.  8.100
  libavcodec     62. 11.100 / 62. 11.100
  libavformat    62.  3.100 / 62.  3.100
  libavdevice    62.  1.100 / 62.  1.100
  libavfilter    11.  4.100 / 11.  4.100
  libswscale      9.  1.100 /  9.  1.100
  libswresample   6.  1.100 /  6.  1.100
    nan    :  0.000 fd=   0 aq=    0KB vq=    0KB sq=    0B [mp3 @ 0000023ef6d0d380] Estimating duration from bitrate, this may be inaccurate
Input #0, mp3, from 'c:\Users\zfj-AUTHOR\Desktop\VSC\Cluster-20251215T135848Z-1-001\Cluster\controller\resource\tts_temp\tts_ab7c1c34d57640afa0f08fd6535377e8.mp3':
  Duration: 00:00:02.11, start: 0.000000, bitrate: 48 kb/s
  Stream #0:0: Audio: mp3 (mp3float), 24000 Hz, mono, fltp, 48 kb/s
    nan M-A:    nan fd=   0 aq=    6KB vq=    0KB sq=    0B   -0.03 M-A: -0.000 fd=   0 aq=    6KB vq=    0KB sq=    0B    0.00 M-A:  0.000 fd=   0 aq=    6KB vq=    0KB sq=    0B    0.03 M-A:  0.000 fd=   0 aq=    6KB vq=    0KB sq=    0B    0.07 M-A:  0.000 fd=   0 aq=    6KB vq=    0KB sq=    0B    0.09 M-A: -0.000 fd=   0 aq=    6KB vq=    0KB sq=    0B    0.12 M-A: -0.000 fd=   0 aq=    6KB vq=    0KB sq=    0B    0.15 M-A:  0.000 fd=   0 aq=    6KB vq=    0KB sq=    0B    0.19 M-A:  0.000 fd=   0 aq=    6KB vq=    0KB sq=    0B    0.22 M-A:  0.000 fd=   0 aq=    6KB vq=    0KB sq=    0B    0.25 M-A:  0.000 fd=   0 aq=    6KB vq=    0KB sq=    0B    0.28 M-A:  0.000 fd=   0 aq=    6KB vq=    0KB sq=    0B    0.31 M-A:  0.000 fd=   0 aq=    6KB vq=    0KB sq=    0B    0.34 M-A:  0.000 fd=   0 aq=    6KB vq=    0KB sq=    0B    0.38 M-A:  0.000 fd=   0 aq=    6KB vq=    0KB sq=    0B    0.41 M-A:  0.000 fd=   0 aq=    6KB vq=    0KB sq=    0B    0.43 M-A: -0.000 fd=   0 aq=    6KB vq=    0KB sq=    0B    0.46 M-A: -0.000 fd=   0 aq=    6KB vq=    0KB sq=    0B    0.50 M-A:  0.000 fd=   0 aq=    6KB vq=    0KB sq=    0B    0.53 M-A: -0.000 fd=   0 aq=    6KB vq=    0KB sq=    0B    0.56 M-A:  0.000 fd=   0 aq=    6KB vq=    0KB sq=    0B    0.59 M-A:  0.000 fd=   0 aq=    6KB vq=    0KB sq=    0B    0.62 M-A:  0.000 fd=   0 aq=    6KB vq=    0KB sq=    0B    0.66 M-A:  0.000 fd=   0 aq=    6KB vq=    0KB sq=    0B    0.69 M-A:  0.000 fd=   0 aq=    6KB vq=    0KB sq=    0B    0.72 M-A:  0.000 fd=   0 aq=    6KB vq=    0KB sq=    0B    0.75 M-A:  0.000 fd=   0 aq=    6KB vq=    0KB sq=    0B    0.78 M-A:  0.000 fd=   0 aq=    6KB vq=    0KB sq=    0B    0.81 M-A:  0.000 fd=   0 aq=    6KB vq=    0KB sq=    0B    0.85 M-A: -0.000 fd=   0 aq=    6KB vq=    0KB sq=    0B    0.88 M-A:  0.000 fd=   0 aq=    6KB vq=    0KB sq=    0B    0.90 M-A:  0.000 fd=   0 aq=    5KB vq=    0KB sq=    0B    0.94 M-A:  0.000 fd=   0 aq=    5KB vq=    0KB sq=    0B    0.97 M-A:  0.000 fd=   0 aq=    5KB vq=    0KB sq=    0B    1.00 M-A:  0.000 fd=   0 aq=    5KB vq=    0KB sq=    0B    1.04 M-A:  0.000 fd=   0 aq=    5KB vq=    0KB sq=    0B    1.07 M-A:  0.000 fd=   0 aq=    5KB vq=    0KB sq=    0B    1.09 M-A: -0.000 fd=   0 aq=    4KB vq=    0KB sq=    0B    1.12 M-A:  0.000 fd=   0 aq=    4KB vq=    0KB sq=    0B    1.16 M-A:  0.000 fd=   0 aq=    4KB vq=    0KB sq=    0B    1.19 M-A:  0.000 fd=   0 aq=    4KB vq=    0KB sq=    0B    1.21 M-A:  0.000 fd=   0 aq=    3KB vq=    0KB sq=    0B    1.25 M-A:  0.000 fd=   0 aq=    3KB vq=    0KB sq=    0B    1.28 M-A:  0.000 fd=   0 aq=    3KB vq=    0KB sq=    0B    1.31 M-A: -0.000 fd=   0 aq=    3KB vq=    0KB sq=    0B    1.35 M-A:  0.000 fd=   0 aq=    3KB vq=    0KB sq=    0B    1.37 M-A:  0.000 fd=   0 aq=    2KB vq=    0KB sq=    0B    1.40 M-A:  0.000 fd=   0 aq=    2KB vq=    0KB sq=    0B    1.44 M-A:  0.000 fd=   0 aq=    2KB vq=    0KB sq=    0B    1.47 M-A:  0.000 fd=   0 aq=    2KB vq=    0KB sq=    0B    1.50 M-A:  0.000 fd=   0 aq=    2KB vq=    0KB sq=    0B    1.53 M-A:  0.000 fd=   0 aq=    2KB vq=    0KB sq=    0B    1.56 M-A:  0.000 fd=   0 aq=    1KB vq=    0KB sq=    0B    1.59 M-A:  0.000 fd=   0 aq=    1KB vq=    0KB sq=    0B    1.63 M-A:  0.000 fd=   0 aq=    1KB vq=    0KB sq=    0B    1.66 M-A:  0.000 fd=   0 aq=    1KB vq=    0KB sq=    0B    1.69 M-A:  0.000 fd=   0 aq=    0KB vq=    0KB sq=    0B    1.71 M-A:  0.000 fd=   0 aq=    0KB vq=    0KB sq=    0B    1.74 M-A:  0.000 fd=   0 aq=    0KB vq=    0KB sq=    0B    1.78 M-A:  0.000 fd=   0 aq=    0KB vq=    0KB sq=    0B    1.81 M-A:  0.000 fd=   0 aq=    0KB vq=    0KB sq=    0B    1.84 M-A:  0.000 fd=   0 aq=    0KB vq=    0KB sq=    0B    1.87 M-A:  0.000 fd=   0 aq=    0KB vq=    0KB sq=    0B    1.90 M-A:  0.000 fd=   0 aq=    0KB vq=    0KB sq=    0B    1.93 M-A:  0.000 fd=   0 aq=    0KB vq=    0KB sq=    0B    1.97 M-A:  0.000 fd=   0 aq=    0KB vq=    0KB sq=    0B    2.00 M-A:  0.000 fd=   0 aq=    0KB vq=    0KB sq=    0B 
ffplay version 8.0.1-essentials_build-www.gyan.dev Copyright (c) 2003-2025 the FFmpeg developers
  built with gcc 15.2.0 (Rev8, Built by MSYS2 project)
  configuration: --enable-gpl --enable-version3 --enable-static --disable-w32threads --disable-autodetect --enable-fontconfig --enable-iconv --enable-gnutls --enable-libxml2 --enable-gmp --enable-bzlib --enable-lzma --enable-zlib --enable-libsrt --enable-libssh --enable-libzmq --enable-avisynth --enable-sdl2 --enable-libwebp --enable-libx264 --enable-libx265 --enable-libxvid --enable-libaom --enable-libopenjpeg --enable-libvpx --enable-mediafoundation --enable-libass --enable-libfreetype --enable-libfribidi --enable-libharfbuzz --enable-libvidstab --enable-libvmaf --enable-libzimg --enable-amf --enable-cuda-llvm --enable-cuvid --enable-dxva2 --enable-d3d11va --enable-d3d12va --enable-ffnvcodec --enable-libvpl --enable-nvdec --enable-nvenc --enable-vaapi --enable-openal --enable-libgme --enable-libopenmpt --enable-libopencore-amrwb --enable-libmp3lame --enable-libtheora --enable-libvo-amrwbenc --enable-libgsm --enable-libopencore-amrnb --enable-libopus --enable-libspeex --enable-libvorbis --enable-librubberband
  libavutil      60.  8.100 / 60.  8.100
  libavcodec     62. 11.100 / 62. 11.100
  libavformat    62.  3.100 / 62.  3.100
  libavdevice    62.  1.100 / 62.  1.100
  libavfilter    11.  4.100 / 11.  4.100
  libswscale      9.  1.100 /  9.  1.100
  libswresample   6.  1.100 /  6.  1.100
    nan    :  0.000 fd=   0 aq=    0KB vq=    0KB sq=    0B [mp3 @ 000001ae9510d380] Estimating duration from bitrate, this may be inaccurate
Input #0, mp3, from 'c:\Users\zfj-AUTHOR\Desktop\VSC\Cluster-20251215T135848Z-1-001\Cluster\controller\resource\tts_temp\tts_ee86fcc425974cd1b17a6c0c562b1327.mp3':
  Duration: 00:00:02.23, start: 0.000000, bitrate: 48 kb/s
  Stream #0:0: Audio: mp3 (mp3float), 24000 Hz, mono, fltp, 48 kb/s
    nan M-A:    nan fd=   0 aq=    6KB vq=    0KB sq=    0B   -0.03 M-A:  0.000 fd=   0 aq=    6KB vq=    0KB sq=    0B    0.01 M-A:  0.000 fd=   0 aq=    6KB vq=    0KB sq=    0B    0.04 M-A:  0.000 fd=   0 aq=    6KB vq=    0KB sq=    0B    0.07 M-A:  0.000 fd=   0 aq=    6KB vq=    0KB sq=    0B    0.10 M-A:  0.000 fd=   0 aq=    6KB vq=    0KB sq=    0B    0.13 M-A:  0.000 fd=   0 aq=    6KB vq=    0KB sq=    0B    0.16 M-A:  0.000 fd=   0 aq=    6KB vq=    0KB sq=    0B    0.20 M-A:  0.000 fd=   0 aq=    6KB vq=    0KB sq=    0B    0.23 M-A:  0.000 fd=   0 aq=    6KB vq=    0KB sq=    0B    0.26 M-A: -0.000 fd=   0 aq=    6KB vq=    0KB sq=    0B    0.28 M-A: -0.000 fd=   0 aq=    6KB vq=    0KB sq=    0B    0.32 M-A:  0.000 fd=   0 aq=    6KB vq=    0KB sq=    0B    0.35 M-A:  0.000 fd=   0 aq=    6KB vq=    0KB sq=    0B    0.39 M-A:  0.000 fd=   0 aq=    6KB vq=    0KB sq=    0B    0.42 M-A:  0.000 fd=   0 aq=    6KB vq=    0KB sq=    0B    0.44 M-A: -0.000 fd=   0 aq=    6KB vq=    0KB sq=    0B    0.47 M-A: -0.000 fd=   0 aq=    6KB vq=    0KB sq=    0B    0.50 M-A: -0.000 fd=   0 aq=    6KB vq=    0KB sq=    0B    0.54 M-A: -0.000 fd=   0 aq=    6KB vq=    0KB sq=    0B    0.56 M-A:  0.000 fd=   0 aq=    6KB vq=    0KB sq=    0B    0.59 M-A:  0.000 fd=   0 aq=    6KB vq=    0KB sq=    0B    0.63 M-A:  0.000 fd=   0 aq=    6KB vq=    0KB sq=    0B    0.66 M-A: -0.000 fd=   0 aq=    6KB vq=    0KB sq=    0B    0.69 M-A:  0.000 fd=   0 aq=    6KB vq=    0KB sq=    0B    0.73 M-A:  0.000 fd=   0 aq=    6KB vq=    0KB sq=    0B    0.75 M-A:  0.000 fd=   0 aq=    6KB vq=    0KB sq=    0B    0.78 M-A: -0.000 fd=   0 aq=    6KB vq=    0KB sq=    0B    0.82 M-A:  0.000 fd=   0 aq=    6KB vq=    0KB sq=    0B    0.85 M-A:  0.000 fd=   0 aq=    6KB vq=    0KB sq=    0B    0.88 M-A:  0.000 fd=   0 aq=    6KB vq=    0KB sq=    0B    0.91 M-A: -0.000 fd=   0 aq=    6KB vq=    0KB sq=    0B    0.94 M-A:  0.000 fd=   0 aq=    6KB vq=    0KB sq=    0B    0.97 M-A:  0.000 fd=   0 aq=    6KB vq=    0KB sq=    0B    1.00 M-A:  0.000 fd=   0 aq=    6KB vq=    0KB sq=    0B    1.04 M-A:  0.000 fd=   0 aq=    5KB vq=    0KB sq=    0B    1.07 M-A: -0.000 fd=   0 aq=    5KB vq=    0KB sq=    0B    1.09 M-A:  0.000 fd=   0 aq=    5KB vq=    0KB sq=    0B    1.13 M-A:  0.000 fd=   0 aq=    5KB vq=    0KB sq=    0B    1.16 M-A:  0.000 fd=   0 aq=    5KB vq=    0KB sq=    0B    1.19 M-A:  0.000 fd=   0 aq=    5KB vq=    0KB sq=    0B    1.22 M-A:  0.000 fd=   0 aq=    4KB vq=    0KB sq=    0B    1.25 M-A:  0.000 fd=   0 aq=    4KB vq=    0KB sq=    0B    1.28 M-A:  0.000 fd=   0 aq=    4KB vq=    0KB sq=    0B    1.31 M-A:  0.000 fd=   0 aq=    4KB vq=    0KB sq=    0B    1.35 M-A:  0.000 fd=   0 aq=    3KB vq=    0KB sq=    0B    1.37 M-A:  0.000 fd=   0 aq=    3KB vq=    0KB sq=    0B    1.40 M-A:  0.000 fd=   0 aq=    3KB vq=    0KB sq=    0B    1.43 M-A:  0.000 fd=   0 aq=    3KB vq=    0KB sq=    0B    1.47 M-A:  0.000 fd=   0 aq=    3KB vq=    0KB sq=    0B    1.50 M-A: -0.000 fd=   0 aq=    2KB vq=    0KB sq=    0B    1.53 M-A:  0.000 fd=   0 aq=    2KB vq=    0KB sq=    0B    1.56 M-A:  0.000 fd=   0 aq=    2KB vq=    0KB sq=    0B    1.59 M-A:  0.000 fd=   0 aq=    2KB vq=    0KB sq=    0B    1.63 M-A:  0.000 fd=   0 aq=    1KB vq=    0KB sq=    0B    1.66 M-A:  0.000 fd=   0 aq=    1KB vq=    0KB sq=    0B    1.69 M-A:  0.000 fd=   0 aq=    1KB vq=    0KB sq=    0B    1.72 M-A:  0.000 fd=   0 aq=    1KB vq=    0KB sq=    0B    1.75 M-A:  0.000 fd=   0 aq=    1KB vq=    0KB sq=    0B    1.78 M-A:  0.000 fd=   0 aq=    1KB vq=    0KB sq=    0B    1.81 M-A:  0.000 fd=   0 aq=    0KB vq=    0KB sq=    0B    1.84 M-A: -0.000 fd=   0 aq=    0KB vq=    0KB sq=    0B    1.87 M-A: -0.000 fd=   0 aq=    0KB vq=    0KB sq=    0B    1.90 M-A:  0.000 fd=   0 aq=    0KB vq=    0KB sq=    0B    1.94 M-A:  0.000 fd=   0 aq=    0KB vq=    0KB sq=    0B    1.98 M-A: -0.000 fd=   0 aq=    0KB vq=    0KB sq=    0B    2.01 M-A: -0.000 fd=   0 aq=    0KB vq=    0KB sq=    0B    2.03 M-A:  0.000 fd=   0 aq=    0KB vq=    0KB sq=    0B    2.07 M-A:  0.000 fd=   0 aq=    0KB vq=    0KB sq=    0B    2.10 M-A:  0.000 fd=   0 aq=    0KB vq=    0KB sq=    0B    2.13 M-A:  0.000 fd=   0 aq=    0KB vq=    0KB sq=    0B 
ffplay version 8.0.1-essentials_build-www.gyan.dev Copyright (c) 2003-2025 the FFmpeg developers
  built with gcc 15.2.0 (Rev8, Built by MSYS2 project)
  configuration: --enable-gpl --enable-version3 --enable-static --disable-w32threads --disable-autodetect --enable-fontconfig --enable-iconv --enable-gnutls --enable-libxml2 --enable-gmp --enable-bzlib --enable-lzma --enable-zlib --enable-libsrt --enable-libssh --enable-libzmq --enable-avisynth --enable-sdl2 --enable-libwebp --enable-libx264 --enable-libx265 --enable-libxvid --enable-libaom --enable-libopenjpeg --enable-libvpx --enable-mediafoundation --enable-libass --enable-libfreetype --enable-libfribidi --enable-libharfbuzz --enable-libvidstab --enable-libvmaf --enable-libzimg --enable-amf --enable-cuda-llvm --enable-cuvid --enable-dxva2 --enable-d3d11va --enable-d3d12va --enable-ffnvcodec --enable-libvpl --enable-nvdec --enable-nvenc --enable-vaapi --enable-openal --enable-libgme --enable-libopenmpt --enable-libopencore-amrwb --enable-libmp3lame --enable-libtheora --enable-libvo-amrwbenc --enable-libgsm --enable-libopencore-amrnb --enable-libopus --enable-libspeex --enable-libvorbis --enable-librubberband
  libavutil      60.  8.100 / 60.  8.100
  libavcodec     62. 11.100 / 62. 11.100
  libavformat    62.  3.100 / 62.  3.100
  libavdevice    62.  1.100 / 62.  1.100
  libavfilter    11.  4.100 / 11.  4.100
  libswscale      9.  1.100 /  9.  1.100
  libswresample   6.  1.100 /  6.  1.100
    nan    :  0.000 fd=   0 aq=    0KB vq=    0KB sq=    0B [mp3 @ 0000023605d1d380] Estimating duration from bitrate, this may be inaccurate
Input #0, mp3, from 'c:\Users\zfj-AUTHOR\Desktop\VSC\Cluster-20251215T135848Z-1-001\Cluster\controller\resource\tts_temp\tts_ffa93e9acacc4dbbbd49fc008e983cf1.mp3':
  Duration: 00:00:02.11, start: 0.000000, bitrate: 48 kb/s
  Stream #0:0: Audio: mp3 (mp3float), 24000 Hz, mono, fltp, 48 kb/s
    nan M-A:    nan fd=   0 aq=    6KB vq=    0KB sq=    0B   -0.03 M-A:  0.000 fd=   0 aq=    6KB vq=    0KB sq=    0B    0.00 M-A:  0.000 fd=   0 aq=    6KB vq=    0KB sq=    0B    0.04 M-A:  0.000 fd=   0 aq=    6KB vq=    0KB sq=    0B    0.07 M-A:  0.000 fd=   0 aq=    6KB vq=    0KB sq=    0B    0.09 M-A:  0.000 fd=   0 aq=    6KB vq=    0KB sq=    0B    0.12 M-A:  0.000 fd=   0 aq=    6KB vq=    0KB sq=    0B    0.16 M-A:  0.000 fd=   0 aq=    6KB vq=    0KB sq=    0B    0.19 M-A:  0.000 fd=   0 aq=    6KB vq=    0KB sq=    0B    0.23 M-A:  0.000 fd=   0 aq=    6KB vq=    0KB sq=    0B    0.26 M-A:  0.000 fd=   0 aq=    6KB vq=    0KB sq=    0B    0.28 M-A:  0.000 fd=   0 aq=    6KB vq=    0KB sq=    0B    0.32 M-A:  0.000 fd=   0 aq=    6KB vq=    0KB sq=    0B    0.35 M-A: -0.000 fd=   0 aq=    6KB vq=    0KB sq=    0B    0.38 M-A:  0.000 fd=   0 aq=    6KB vq=    0KB sq=    0B    0.41 M-A:  0.000 fd=   0 aq=    6KB vq=    0KB sq=    0B    0.44 M-A: -0.000 fd=   0 aq=    6KB vq=    0KB sq=    0B    0.47 M-A:  0.000 fd=   0 aq=    6KB vq=    0KB sq=    0B    0.50 M-A:  0.000 fd=   0 aq=    6KB vq=    0KB sq=    0B    0.53 M-A: -0.000 fd=   0 aq=    6KB vq=    0KB sq=    0B    0.56 M-A:  0.000 fd=   0 aq=    6KB vq=    0KB sq=    0B    0.59 M-A:  0.000 fd=   0 aq=    6KB vq=    0KB sq=    0B    0.63 M-A:  0.000 fd=   0 aq=    6KB vq=    0KB sq=    0B    0.66 M-A:  0.000 fd=   0 aq=    6KB vq=    0KB sq=    0B    0.69 M-A:  0.000 fd=   0 aq=    6KB vq=    0KB sq=    0B    0.73 M-A: -0.000 fd=   0 aq=    6KB vq=    0KB sq=    0B    0.75 M-A:  0.000 fd=   0 aq=    6KB vq=    0KB sq=    0B    0.78 M-A:  0.000 fd=   0 aq=    6KB vq=    0KB sq=    0B    0.82 M-A:  0.000 fd=   0 aq=    6KB vq=    0KB sq=    0B    0.85 M-A:  0.000 fd=   0 aq=    6KB vq=    0KB sq=    0B    0.88 M-A:  0.000 fd=   0 aq=    6KB vq=    0KB sq=    0B    0.90 M-A:  0.000 fd=   0 aq=    5KB vq=    0KB sq=    0B    0.94 M-A:  0.000 fd=   0 aq=    5KB vq=    0KB sq=    0B    0.97 M-A:  0.000 fd=   0 aq=    5KB vq=    0KB sq=    0B    1.00 M-A:  0.000 fd=   0 aq=    5KB vq=    0KB sq=    0B    1.04 M-A:  0.000 fd=   0 aq=    5KB vq=    0KB sq=    0B    1.07 M-A:  0.000 fd=   0 aq=    5KB vq=    0KB sq=    0B    1.09 M-A:  0.000 fd=   0 aq=    4KB vq=    0KB sq=    0B    1.12 M-A:  0.000 fd=   0 aq=    4KB vq=    0KB sq=    0B    1.16 M-A:  0.000 fd=   0 aq=    4KB vq=    0KB sq=    0B    1.19 M-A:  0.000 fd=   0 aq=    4KB vq=    0KB sq=    0B    1.21 M-A:  0.000 fd=   0 aq=    3KB vq=    0KB sq=    0B    1.25 M-A:  0.000 fd=   0 aq=    3KB vq=    0KB sq=    0B    1.28 M-A:  0.000 fd=   0 aq=    3KB vq=    0KB sq=    0B    1.31 M-A:  0.000 fd=   0 aq=    3KB vq=    0KB sq=    0B    1.35 M-A:  0.000 fd=   0 aq=    3KB vq=    0KB sq=    0B    1.37 M-A:  0.000 fd=   0 aq=    2KB vq=    0KB sq=    0B    1.40 M-A:  0.000 fd=   0 aq=    2KB vq=    0KB sq=    0B    1.44 M-A:  0.000 fd=   0 aq=    2KB vq=    0KB sq=    0B    1.49 M-A:  0.000 fd=   0 aq=    2KB vq=    0KB sq=    0B    1.53 M-A:  0.000 fd=   0 aq=    2KB vq=    0KB sq=    0B    1.55 M-A:  0.000 fd=   0 aq=    1KB vq=    0KB sq=    0B    1.58 M-A:  0.000 fd=   0 aq=    1KB vq=    0KB sq=    0B    1.61 M-A:  0.000 fd=   0 aq=    1KB vq=    0KB sq=    0B    1.65 M-A:  0.000 fd=   0 aq=    1KB vq=    0KB sq=    0B    1.68 M-A:  0.000 fd=   0 aq=    0KB vq=    0KB sq=    0B    1.71 M-A:  0.000 fd=   0 aq=    0KB vq=    0KB sq=    0B    1.74 M-A:  0.000 fd=   0 aq=    0KB vq=    0KB sq=    0B    1.77 M-A:  0.000 fd=   0 aq=    0KB vq=    0KB sq=    0B    1.81 M-A: -0.000 fd=   0 aq=    0KB vq=    0KB sq=    0B    1.84 M-A: -0.000 fd=   0 aq=    0KB vq=    0KB sq=    0B    1.86 M-A:  0.000 fd=   0 aq=    0KB vq=    0KB sq=    0B    1.90 M-A:  0.000 fd=   0 aq=    0KB vq=    0KB sq=    0B    1.94 M-A:  0.000 fd=   0 aq=    0KB vq=    0KB sq=    0B    1.98 M-A:  0.000 fd=   0 aq=    0KB vq=    0KB sq=    0B    2.01 M-A:  0.000 fd=   0 aq=    0KB vq=    0KB sq=    0B    2.03 M-A:  0.000 fd=   0 aq=    0KB vq=    0KB sq=    0B 
ffplay version 8.0.1-essentials_build-www.gyan.dev Copyright (c) 2003-2025 the FFmpeg developers
  built with gcc 15.2.0 (Rev8, Built by MSYS2 project)
  configuration: --enable-gpl --enable-version3 --enable-static --disable-w32threads --disable-autodetect --enable-fontconfig --enable-iconv --enable-gnutls --enable-libxml2 --enable-gmp --enable-bzlib --enable-lzma --enable-zlib --enable-libsrt --enable-libssh --enable-libzmq --enable-avisynth --enable-sdl2 --enable-libwebp --enable-libx264 --enable-libx265 --enable-libxvid --enable-libaom --enable-libopenjpeg --enable-libvpx --enable-mediafoundation --enable-libass --enable-libfreetype --enable-libfribidi --enable-libharfbuzz --enable-libvidstab --enable-libvmaf --enable-libzimg --enable-amf --enable-cuda-llvm --enable-cuvid --enable-dxva2 --enable-d3d11va --enable-d3d12va --enable-ffnvcodec --enable-libvpl --enable-nvdec --enable-nvenc --enable-vaapi --enable-openal --enable-libgme --enable-libopenmpt --enable-libopencore-amrwb --enable-libmp3lame --enable-libtheora --enable-libvo-amrwbenc --enable-libgsm --enable-libopencore-amrnb --enable-libopus --enable-libspeex --enable-libvorbis --enable-librubberband
  libavutil      60.  8.100 / 60.  8.100
  libavcodec     62. 11.100 / 62. 11.100
  libavformat    62.  3.100 / 62.  3.100
  libavdevice    62.  1.100 / 62.  1.100
  libavfilter    11.  4.100 / 11.  4.100
  libswscale      9.  1.100 /  9.  1.100
  libswresample   6.  1.100 /  6.  1.100
    nan    :  0.000 fd=   0 aq=    0KB vq=    0KB sq=    0B [mp3 @ 0000022ebe3bd380] Estimating duration from bitrate, this may be inaccurate
Input #0, mp3, from 'c:\Users\zfj-AUTHOR\Desktop\VSC\Cluster-20251215T135848Z-1-001\Cluster\controller\resource\tts_temp\tts_8c222760a3bf4c13931527d032408d81.mp3':
  Duration: 00:00:02.28, start: 0.000000, bitrate: 48 kb/s
  Stream #0:0: Audio: mp3 (mp3float), 24000 Hz, mono, fltp, 48 kb/s
    nan M-A:    nan fd=   0 aq=    6KB vq=    0KB sq=    0B   -0.03 M-A:  0.000 fd=   0 aq=    6KB vq=    0KB sq=    0B    0.01 M-A:  0.000 fd=   0 aq=    6KB vq=    0KB sq=    0B    0.04 M-A:  0.000 fd=   0 aq=    6KB vq=    0KB sq=    0B    0.07 M-A:  0.000 fd=   0 aq=    6KB vq=    0KB sq=    0B    0.09 M-A:  0.000 fd=   0 aq=    6KB vq=    0KB sq=    0B    0.12 M-A: -0.000 fd=   0 aq=    6KB vq=    0KB sq=    0B    0.16 M-A: -0.000 fd=   0 aq=    6KB vq=    0KB sq=    0B    0.19 M-A:  0.000 fd=   0 aq=    6KB vq=    0KB sq=    0B    0.23 M-A:  0.000 fd=   0 aq=    6KB vq=    0KB sq=    0B    0.26 M-A:  0.000 fd=   0 aq=    6KB vq=    0KB sq=    0B    0.28 M-A:  0.000 fd=   0 aq=    6KB vq=    0KB sq=    0B    0.31 M-A:  0.000 fd=   0 aq=    6KB vq=    0KB sq=    0B    0.35 M-A:  0.000 fd=   0 aq=    6KB vq=    0KB sq=    0B    0.38 M-A:  0.000 fd=   0 aq=    6KB vq=    0KB sq=    0B    0.41 M-A:  0.000 fd=   0 aq=    6KB vq=    0KB sq=    0B    0.44 M-A:  0.000 fd=   0 aq=    6KB vq=    0KB sq=    0B    0.47 M-A:  0.000 fd=   0 aq=    6KB vq=    0KB sq=    0B    0.50 M-A: -0.000 fd=   0 aq=    6KB vq=    0KB sq=    0B    0.54 M-A:  0.000 fd=   0 aq=    6KB vq=    0KB sq=    0B    0.56 M-A:  0.000 fd=   0 aq=    6KB vq=    0KB sq=    0B    0.59 M-A: -0.000 fd=   0 aq=    6KB vq=    0KB sq=    0B    0.63 M-A:  0.000 fd=   0 aq=    6KB vq=    0KB sq=    0B    0.66 M-A:  0.000 fd=   0 aq=    6KB vq=    0KB sq=    0B    0.69 M-A:  0.000 fd=   0 aq=    6KB vq=    0KB sq=    0B    0.72 M-A:  0.000 fd=   0 aq=    6KB vq=    0KB sq=    0B    0.75 M-A:  0.000 fd=   0 aq=    6KB vq=    0KB sq=    0B    0.78 M-A:  0.000 fd=   0 aq=    6KB vq=    0KB sq=    0B    0.82 M-A:  0.000 fd=   0 aq=    6KB vq=    0KB sq=    0B    0.85 M-A:  0.000 fd=   0 aq=    6KB vq=    0KB sq=    0B    0.88 M-A:  0.000 fd=   0 aq=    6KB vq=    0KB sq=    0B    0.90 M-A:  0.000 fd=   0 aq=    6KB vq=    0KB sq=    0B    0.94 M-A:  0.000 fd=   0 aq=    6KB vq=    0KB sq=    0B    0.97 M-A:  0.000 fd=   0 aq=    6KB vq=    0KB sq=    0B    1.00 M-A:  0.000 fd=   0 aq=    6KB vq=    0KB sq=    0B    1.04 M-A:  0.000 fd=   0 aq=    6KB vq=    0KB sq=    0B    1.07 M-A: -0.000 fd=   0 aq=    6KB vq=    0KB sq=    0B    1.09 M-A:  0.000 fd=   0 aq=    5KB vq=    0KB sq=    0B    1.12 M-A:  0.000 fd=   0 aq=    5KB vq=    0KB sq=    0B    1.16 M-A:  0.000 fd=   0 aq=    5KB vq=    0KB sq=    0B    1.19 M-A:  0.000 fd=   0 aq=    5KB vq=    0KB sq=    0B    1.21 M-A:  0.000 fd=   0 aq=    5KB vq=    0KB sq=    0B    1.25 M-A:  0.000 fd=   0 aq=    4KB vq=    0KB sq=    0B    1.28 M-A:  0.000 fd=   0 aq=    4KB vq=    0KB sq=    0B    1.31 M-A:  0.000 fd=   0 aq=    4KB vq=    0KB sq=    0B    1.35 M-A:  0.000 fd=   0 aq=    4KB vq=    0KB sq=    0B    1.37 M-A:  0.000 fd=   0 aq=    3KB vq=    0KB sq=    0B    1.40 M-A:  0.000 fd=   0 aq=    3KB vq=    0KB sq=    0B    1.44 M-A:  0.000 fd=   0 aq=    3KB vq=    0KB sq=    0B    1.47 M-A:  0.000 fd=   0 aq=    3KB vq=    0KB sq=    0B    1.50 M-A:  0.000 fd=   0 aq=    3KB vq=    0KB sq=    0B    1.54 M-A:  0.000 fd=   0 aq=    3KB vq=    0KB sq=    0B    1.56 M-A:  0.000 fd=   0 aq=    2KB vq=    0KB sq=    0B    1.59 M-A:  0.000 fd=   0 aq=    2KB vq=    0KB sq=    0B    1.63 M-A:  0.000 fd=   0 aq=    2KB vq=    0KB sq=    0B    1.66 M-A:  0.000 fd=   0 aq=    2KB vq=    0KB sq=    0B    1.69 M-A: -0.000 fd=   0 aq=    2KB vq=    0KB sq=    0B    1.72 M-A:  0.000 fd=   0 aq=    1KB vq=    0KB sq=    0B    1.75 M-A:  0.000 fd=   0 aq=    1KB vq=    0KB sq=    0B    1.78 M-A:  0.000 fd=   0 aq=    1KB vq=    0KB sq=    0B    1.82 M-A: -0.000 fd=   0 aq=    1KB vq=    0KB sq=    0B    1.84 M-A:  0.000 fd=   0 aq=    0KB vq=    0KB sq=    0B    1.87 M-A:  0.000 fd=   0 aq=    0KB vq=    0KB sq=    0B    1.91 M-A:  0.000 fd=   0 aq=    0KB vq=    0KB sq=    0B    1.94 M-A:  0.000 fd=   0 aq=    0KB vq=    0KB sq=    0B    1.97 M-A: -0.000 fd=   0 aq=    0KB vq=    0KB sq=    0B    2.01 M-A:  0.000 fd=   0 aq=    0KB vq=    0KB sq=    0B    2.03 M-A: -0.000 fd=   0 aq=    0KB vq=    0KB sq=    0B    2.07 M-A:  0.000 fd=   0 aq=    0KB vq=    0KB sq=    0B    2.11 M-A:  0.000 fd=   0 aq=    0KB vq=    0KB sq=    0B    2.15 M-A:  0.000 fd=   0 aq=    0KB vq=    0KB sq=    0B    2.18 M-A:  0.000 fd=   0 aq=    0KB vq=    0KB sq=    0B 
ffplay version 8.0.1-essentials_build-www.gyan.dev Copyright (c) 2003-2025 the FFmpeg developers
  built with gcc 15.2.0 (Rev8, Built by MSYS2 project)
  configuration: --enable-gpl --enable-version3 --enable-static --disable-w32threads --disable-autodetect --enable-fontconfig --enable-iconv --enable-gnutls --enable-libxml2 --enable-gmp --enable-bzlib --enable-lzma --enable-zlib --enable-libsrt --enable-libssh --enable-libzmq --enable-avisynth --enable-sdl2 --enable-libwebp --enable-libx264 --enable-libx265 --enable-libxvid --enable-libaom --enable-libopenjpeg --enable-libvpx --enable-mediafoundation --enable-libass --enable-libfreetype --enable-libfribidi --enable-libharfbuzz --enable-libvidstab --enable-libvmaf --enable-libzimg --enable-amf --enable-cuda-llvm --enable-cuvid --enable-dxva2 --enable-d3d11va --enable-d3d12va --enable-ffnvcodec --enable-libvpl --enable-nvdec --enable-nvenc --enable-vaapi --enable-openal --enable-libgme --enable-libopenmpt --enable-libopencore-amrwb --enable-libmp3lame --enable-libtheora --enable-libvo-amrwbenc --enable-libgsm --enable-libopencore-amrnb --enable-libopus --enable-libspeex --enable-libvorbis --enable-librubberband
  libavutil      60.  8.100 / 60.  8.100
  libavcodec     62. 11.100 / 62. 11.100
  libavformat    62.  3.100 / 62.  3.100
  libavdevice    62.  1.100 / 62.  1.100
  libavfilter    11.  4.100 / 11.  4.100
  libswscale      9.  1.100 /  9.  1.100
  libswresample   6.  1.100 /  6.  1.100
    nan    :  0.000 fd=   0 aq=    0KB vq=    0KB sq=    0B [mp3 @ 00000295b1e1d380] Estimating duration from bitrate, this may be inaccurate
Input #0, mp3, from 'c:\Users\zfj-AUTHOR\Desktop\VSC\Cluster-20251215T135848Z-1-001\Cluster\controller\resource\tts_temp\tts_532b7331f60d4ff08a29f73dc5085f22.mp3':
  Duration: 00:00:02.35, start: 0.000000, bitrate: 48 kb/s
  Stream #0:0: Audio: mp3 (mp3float), 24000 Hz, mono, fltp, 48 kb/s
    nan M-A:    nan fd=   0 aq=    6KB vq=    0KB sq=    0B   -0.03 M-A: -0.000 fd=   0 aq=    6KB vq=    0KB sq=    0B   -0.00 M-A:  0.000 fd=   0 aq=    6KB vq=    0KB sq=    0B    0.03 M-A:  0.000 fd=   0 aq=    6KB vq=    0KB sq=    0B    0.06 M-A:  0.000 fd=   0 aq=    6KB vq=    0KB sq=    0B    0.09 M-A:  0.000 fd=   0 aq=    6KB vq=    0KB sq=    0B    0.12 M-A: -0.000 fd=   0 aq=    6KB vq=    0KB sq=    0B    0.15 M-A: -0.000 fd=   0 aq=    6KB vq=    0KB sq=    0B    0.19 M-A:  0.000 fd=   0 aq=    6KB vq=    0KB sq=    0B    0.22 M-A:  0.000 fd=   0 aq=    6KB vq=    0KB sq=    0B    0.25 M-A:  0.000 fd=   0 aq=    6KB vq=    0KB sq=    0B    0.27 M-A:  0.000 fd=   0 aq=    6KB vq=    0KB sq=    0B    0.31 M-A:  0.000 fd=   0 aq=    6KB vq=    0KB sq=    0B    0.34 M-A:  0.000 fd=   0 aq=    6KB vq=    0KB sq=    0B    0.37 M-A:  0.000 fd=   0 aq=    6KB vq=    0KB sq=    0B    0.41 M-A:  0.000 fd=   0 aq=    6KB vq=    0KB sq=    0B    0.43 M-A:  0.000 fd=   0 aq=    6KB vq=    0KB sq=    0B    0.46 M-A:  0.000 fd=   0 aq=    6KB vq=    0KB sq=    0B    0.49 M-A:  0.000 fd=   0 aq=    6KB vq=    0KB sq=    0B    0.53 M-A:  0.000 fd=   0 aq=    6KB vq=    0KB sq=    0B    0.56 M-A:  0.000 fd=   0 aq=    6KB vq=    0KB sq=    0B    0.58 M-A:  0.000 fd=   0 aq=    6KB vq=    0KB sq=    0B    0.62 M-A:  0.000 fd=   0 aq=    6KB vq=    0KB sq=    0B    0.65 M-A:  0.000 fd=   0 aq=    6KB vq=    0KB sq=    0B    0.69 M-A:  0.000 fd=   0 aq=    6KB vq=    0KB sq=    0B    0.72 M-A:  0.000 fd=   0 aq=    6KB vq=    0KB sq=    0B    0.74 M-A:  0.000 fd=   0 aq=    6KB vq=    0KB sq=    0B    0.77 M-A:  0.000 fd=   0 aq=    6KB vq=    0KB sq=    0B    0.81 M-A:  0.000 fd=   0 aq=    6KB vq=    0KB sq=    0B    0.84 M-A:  0.000 fd=   0 aq=    6KB vq=    0KB sq=    0B    0.87 M-A:  0.000 fd=   0 aq=    6KB vq=    0KB sq=    0B    0.90 M-A: -0.000 fd=   0 aq=    6KB vq=    0KB sq=    0B    0.93 M-A:  0.000 fd=   0 aq=    6KB vq=    0KB sq=    0B    0.96 M-A:  0.000 fd=   0 aq=    6KB vq=    0KB sq=    0B    0.99 M-A:  0.000 fd=   0 aq=    6KB vq=    0KB sq=    0B    1.03 M-A:  0.000 fd=   0 aq=    6KB vq=    0KB sq=    0B    1.06 M-A:  0.000 fd=   0 aq=    6KB vq=    0KB sq=    0B    1.08 M-A:  0.000 fd=   0 aq=    6KB vq=    0KB sq=    0B    1.12 M-A:  0.000 fd=   0 aq=    6KB vq=    0KB sq=    0B    1.15 M-A:  0.000 fd=   0 aq=    6KB vq=    0KB sq=    0B    1.18 M-A:  0.000 fd=   0 aq=    5KB vq=    0KB sq=    0B    1.21 M-A:  0.000 fd=   0 aq=    5KB vq=    0KB sq=    0B    1.24 M-A:  0.000 fd=   0 aq=    5KB vq=    0KB sq=    0B    1.27 M-A:  0.000 fd=   0 aq=    5KB vq=    0KB sq=    0B    1.30 M-A:  0.000 fd=   0 aq=    5KB vq=    0KB sq=    0B    1.34 M-A:  0.000 fd=   0 aq=    4KB vq=    0KB sq=    0B    1.37 M-A:  0.000 fd=   0 aq=    4KB vq=    0KB sq=    0B    1.39 M-A:  0.000 fd=   0 aq=    4KB vq=    0KB sq=    0B    1.43 M-A:  0.000 fd=   0 aq=    4KB vq=    0KB sq=    0B    1.46 M-A:  0.000 fd=   0 aq=    3KB vq=    0KB sq=    0B    1.49 M-A:  0.000 fd=   0 aq=    3KB vq=    0KB sq=    0B    1.54 M-A:  0.000 fd=   0 aq=    3KB vq=    0KB sq=    0B    1.57 M-A:  0.000 fd=   0 aq=    3KB vq=    0KB sq=    0B    1.60 M-A: -0.000 fd=   0 aq=    2KB vq=    0KB sq=    0B    1.64 M-A:  0.000 fd=   0 aq=    2KB vq=    0KB sq=    0B    1.67 M-A: -0.000 fd=   0 aq=    2KB vq=    0KB sq=    0B    1.70 M-A:  0.000 fd=   0 aq=    2KB vq=    0KB sq=    0B    1.73 M-A:  0.000 fd=   0 aq=    2KB vq=    0KB sq=    0B    1.76 M-A:  0.000 fd=   0 aq=    1KB vq=    0KB sq=    0B    1.79 M-A:  0.000 fd=   0 aq=    1KB vq=    0KB sq=    0B    1.82 M-A:  0.000 fd=   0 aq=    1KB vq=    0KB sq=    0B    1.85 M-A:  0.000 fd=   0 aq=    1KB vq=    0KB sq=    0B    1.88 M-A:  0.000 fd=   0 aq=    1KB vq=    0KB sq=    0B    1.91 M-A:  0.000 fd=   0 aq=    1KB vq=    0KB sq=    0B    1.95 M-A:  0.000 fd=   0 aq=    0KB vq=    0KB sq=    0B    1.98 M-A:  0.000 fd=   0 aq=    0KB vq=    0KB sq=    0B    2.01 M-A:  0.000 fd=   0 aq=    0KB vq=    0KB sq=    0B    2.04 M-A:  0.000 fd=   0 aq=    0KB vq=    0KB sq=    0B    2.07 M-A:  0.000 fd=   0 aq=    0KB vq=    0KB sq=    0B    2.11 M-A:  0.000 fd=   0 aq=    0KB vq=    0KB sq=    0B    2.14 M-A:  0.000 fd=   0 aq=    0KB vq=    0KB sq=    0B    2.17 M-A:  0.000 fd=   0 aq=    0KB vq=    0KB sq=    0B    2.20 M-A:  0.000 fd=   0 aq=    0KB vq=    0KB sq=    0B    2.23 M-A: -0.000 fd=   0 aq=    0KB vq=    0KB sq=    0B    2.27 M-A:  0.000 fd=   0 aq=    0KB vq=    0KB sq=    0B 
ffplay version 8.0.1-essentials_build-www.gyan.dev Copyright (c) 2003-2025 the FFmpeg developers
  built with gcc 15.2.0 (Rev8, Built by MSYS2 project)
  configuration: --enable-gpl --enable-version3 --enable-static --disable-w32threads --disable-autodetect --enable-fontconfig --enable-iconv --enable-gnutls --enable-libxml2 --enable-gmp --enable-bzlib --enable-lzma --enable-zlib --enable-libsrt --enable-libssh --enable-libzmq --enable-avisynth --enable-sdl2 --enable-libwebp --enable-libx264 --enable-libx265 --enable-libxvid --enable-libaom --enable-libopenjpeg --enable-libvpx --enable-mediafoundation --enable-libass --enable-libfreetype --enable-libfribidi --enable-libharfbuzz --enable-libvidstab --enable-libvmaf --enable-libzimg --enable-amf --enable-cuda-llvm --enable-cuvid --enable-dxva2 --enable-d3d11va --enable-d3d12va --enable-ffnvcodec --enable-libvpl --enable-nvdec --enable-nvenc --enable-vaapi --enable-openal --enable-libgme --enable-libopenmpt --enable-libopencore-amrwb --enable-libmp3lame --enable-libtheora --enable-libvo-amrwbenc --enable-libgsm --enable-libopencore-amrnb --enable-libopus --enable-libspeex --enable-libvorbis --enable-librubberband
  libavutil      60.  8.100 / 60.  8.100
  libavcodec     62. 11.100 / 62. 11.100
  libavformat    62.  3.100 / 62.  3.100
  libavdevice    62.  1.100 / 62.  1.100
  libavfilter    11.  4.100 / 11.  4.100
  libswscale      9.  1.100 /  9.  1.100
  libswresample   6.  1.100 /  6.  1.100
    nan    :  0.000 fd=   0 aq=    0KB vq=    0KB sq=    0B [mp3 @ 000001a8df05d380] Estimating duration from bitrate, this may be inaccurate
Input #0, mp3, from 'c:\Users\zfj-AUTHOR\Desktop\VSC\Cluster-20251215T135848Z-1-001\Cluster\controller\resource\tts_temp\tts_291c5ce7d88246c3a67c0bbaf98359d9.mp3':
  Duration: 00:00:01.94, start: 0.000000, bitrate: 48 kb/s
  Stream #0:0: Audio: mp3 (mp3float), 24000 Hz, mono, fltp, 48 kb/s
    nan M-A:    nan fd=   0 aq=    6KB vq=    0KB sq=    0B   -0.03 M-A:  0.000 fd=   0 aq=    6KB vq=    0KB sq=    0B    0.00 M-A:  0.000 fd=   0 aq=    6KB vq=    0KB sq=    0B    0.03 M-A:  0.000 fd=   0 aq=    6KB vq=    0KB sq=    0B    0.07 M-A: -0.000 fd=   0 aq=    6KB vq=    0KB sq=    0B    0.09 M-A:  0.000 fd=   0 aq=    6KB vq=    0KB sq=    0B    0.12 M-A:  0.000 fd=   0 aq=    6KB vq=    0KB sq=    0B    0.16 M-A: -0.000 fd=   0 aq=    6KB vq=    0KB sq=    0B    0.19 M-A:  0.000 fd=   0 aq=    6KB vq=    0KB sq=    0B    0.22 M-A:  0.000 fd=   0 aq=    6KB vq=    0KB sq=    0B    0.25 M-A:  0.000 fd=   0 aq=    6KB vq=    0KB sq=    0B    0.28 M-A:  0.000 fd=   0 aq=    6KB vq=    0KB sq=    0B    0.31 M-A:  0.000 fd=   0 aq=    6KB vq=    0KB sq=    0B    0.35 M-A: -0.000 fd=   0 aq=    6KB vq=    0KB sq=    0B    0.38 M-A:  0.000 fd=   0 aq=    6KB vq=    0KB sq=    0B    0.41 M-A:  0.000 fd=   0 aq=    6KB vq=    0KB sq=    0B    0.44 M-A:  0.000 fd=   0 aq=    6KB vq=    0KB sq=    0B    0.47 M-A:  0.000 fd=   0 aq=    6KB vq=    0KB sq=    0B    0.50 M-A:  0.000 fd=   0 aq=    6KB vq=    0KB sq=    0B    0.54 M-A:  0.000 fd=   0 aq=    6KB vq=    0KB sq=    0B    0.56 M-A:  0.000 fd=   0 aq=    6KB vq=    0KB sq=    0B    0.59 M-A:  0.000 fd=   0 aq=    6KB vq=    0KB sq=    0B    0.62 M-A:  0.000 fd=   0 aq=    6KB vq=    0KB sq=    0B    0.66 M-A:  0.000 fd=   0 aq=    6KB vq=    0KB sq=    0B    0.69 M-A:  0.000 fd=   0 aq=    6KB vq=    0KB sq=    0B    0.72 M-A:  0.000 fd=   0 aq=    6KB vq=    0KB sq=    0B    0.75 M-A:  0.000 fd=   0 aq=    5KB vq=    0KB sq=    0B    0.78 M-A:  0.000 fd=   0 aq=    5KB vq=    0KB sq=    0B    0.81 M-A: -0.000 fd=   0 aq=    5KB vq=    0KB sq=    0B    0.85 M-A: -0.000 fd=   0 aq=    5KB vq=    0KB sq=    0B    0.88 M-A:  0.000 fd=   0 aq=    5KB vq=    0KB sq=    0B    0.90 M-A:  0.000 fd=   0 aq=    4KB vq=    0KB sq=    0B    0.94 M-A:  0.000 fd=   0 aq=    4KB vq=    0KB sq=    0B    0.97 M-A: -0.000 fd=   0 aq=    4KB vq=    0KB sq=    0B    1.00 M-A:  0.000 fd=   0 aq=    4KB vq=    0KB sq=    0B    1.04 M-A:  0.000 fd=   0 aq=    3KB vq=    0KB sq=    0B    1.07 M-A: -0.000 fd=   0 aq=    3KB vq=    0KB sq=    0B    1.09 M-A:  0.000 fd=   0 aq=    3KB vq=    0KB sq=    0B    1.13 M-A:  0.000 fd=   0 aq=    3KB vq=    0KB sq=    0B    1.16 M-A:  0.000 fd=   0 aq=    3KB vq=    0KB sq=    0B    1.19 M-A:  0.000 fd=   0 aq=    3KB vq=    0KB sq=    0B    1.22 M-A:  0.000 fd=   0 aq=    2KB vq=    0KB sq=    0B    1.25 M-A:  0.000 fd=   0 aq=    2KB vq=    0KB sq=    0B    1.28 M-A: -0.000 fd=   0 aq=    2KB vq=    0KB sq=    0B    1.32 M-A: -0.000 fd=   0 aq=    2KB vq=    0KB sq=    0B    1.35 M-A: -0.000 fd=   0 aq=    2KB vq=    0KB sq=    0B    1.37 M-A: -0.000 fd=   0 aq=    1KB vq=    0KB sq=    0B    1.41 M-A:  0.000 fd=   0 aq=    1KB vq=    0KB sq=    0B    1.44 M-A:  0.000 fd=   0 aq=    1KB vq=    0KB sq=    0B    1.47 M-A:  0.000 fd=   0 aq=    1KB vq=    0KB sq=    0B    1.51 M-A:  0.000 fd=   0 aq=    0KB vq=    0KB sq=    0B    1.54 M-A:  0.000 fd=   0 aq=    0KB vq=    0KB sq=    0B    1.56 M-A:  0.000 fd=   0 aq=    0KB vq=    0KB sq=    0B    1.59 M-A:  0.000 fd=   0 aq=    0KB vq=    0KB sq=    0B    1.63 M-A:  0.000 fd=   0 aq=    0KB vq=    0KB sq=    0B    1.66 M-A:  0.000 fd=   0 aq=    0KB vq=    0KB sq=    0B    1.69 M-A:  0.000 fd=   0 aq=    0KB vq=    0KB sq=    0B    1.72 M-A:  0.000 fd=   0 aq=    0KB vq=    0KB sq=    0B    1.75 M-A: -0.000 fd=   0 aq=    0KB vq=    0KB sq=    0B    1.78 M-A:  0.000 fd=   0 aq=    0KB vq=    0KB sq=    0B    1.82 M-A:  0.000 fd=   0 aq=    0KB vq=    0KB sq=    0B    1.84 M-A: -0.000 fd=   0 aq=    0KB vq=    0KB sq=    0B    1.87 M-A: -0.000 fd=   0 aq=    0KB vq=    0KB sq=    0B    1.88 M-A:  0.000 fd=   0 aq=    0KB vq=    0KB sq=    0B 
ffplay version 8.0.1-essentials_build-www.gyan.dev Copyright (c) 2003-2025 the FFmpeg developers
  built with gcc 15.2.0 (Rev8, Built by MSYS2 project)
  configuration: --enable-gpl --enable-version3 --enable-static --disable-w32threads --disable-autodetect --enable-fontconfig --enable-iconv --enable-gnutls --enable-libxml2 --enable-gmp --enable-bzlib --enable-lzma --enable-zlib --enable-libsrt --enable-libssh --enable-libzmq --enable-avisynth --enable-sdl2 --enable-libwebp --enable-libx264 --enable-libx265 --enable-libxvid --enable-libaom --enable-libopenjpeg --enable-libvpx --enable-mediafoundation --enable-libass --enable-libfreetype --enable-libfribidi --enable-libharfbuzz --enable-libvidstab --enable-libvmaf --enable-libzimg --enable-amf --enable-cuda-llvm --enable-cuvid --enable-dxva2 --enable-d3d11va --enable-d3d12va --enable-ffnvcodec --enable-libvpl --enable-nvdec --enable-nvenc --enable-vaapi --enable-openal --enable-libgme --enable-libopenmpt --enable-libopencore-amrwb --enable-libmp3lame --enable-libtheora --enable-libvo-amrwbenc --enable-libgsm --enable-libopencore-amrnb --enable-libopus --enable-libspeex --enable-libvorbis --enable-librubberband
  libavutil      60.  8.100 / 60.  8.100
  libavcodec     62. 11.100 / 62. 11.100
  libavformat    62.  3.100 / 62.  3.100
  libavdevice    62.  1.100 / 62.  1.100
  libavfilter    11.  4.100 / 11.  4.100
  libswscale      9.  1.100 /  9.  1.100
  libswresample   6.  1.100 /  6.  1.100
    nan    :  0.000 fd=   0 aq=    0KB vq=    0KB sq=    0B [mp3 @ 000002592c93d380] Estimating duration from bitrate, this may be inaccurate
Input #0, mp3, from 'c:\Users\zfj-AUTHOR\Desktop\VSC\Cluster-20251215T135848Z-1-001\Cluster\controller\resource\tts_temp\tts_40a72f924470440d94f3a7465db31fa2.mp3':
  Duration: 00:00:08.95, start: 0.000000, bitrate: 48 kb/s
  Stream #0:0: Audio: mp3 (mp3float), 24000 Hz, mono, fltp, 48 kb/s
  -0.03 M-A: -0.000 fd=   0 aq=    6KB vq=    0KB sq=    0B    0.00 M-A:  0.000 fd=   0 aq=    6KB vq=    0KB sq=    0B    0.03 M-A:  0.000 fd=   0 aq=    6KB vq=    0KB sq=    0B    0.07 M-A:  0.000 fd=   0 aq=    6KB vq=    0KB sq=    0B    0.10 M-A:  0.000 fd=   0 aq=    6KB vq=    0KB sq=    0B    0.13 M-A: -0.000 fd=   0 aq=    6KB vq=    0KB sq=    0B    0.16 M-A:  0.000 fd=   0 aq=    6KB vq=    0KB sq=    0B    0.19 M-A:  0.000 fd=   0 aq=    6KB vq=    0KB sq=    0B    0.23 M-A:  0.000 fd=   0 aq=    6KB vq=    0KB sq=    0B    0.26 M-A:  0.000 fd=   0 aq=    6KB vq=    0KB sq=    0B    0.29 M-A:  0.000 fd=   0 aq=    6KB vq=    0KB sq=    0B    0.32 M-A:  0.000 fd=   0 aq=    6KB vq=    0KB sq=    0B    0.35 M-A:  0.000 fd=   0 aq=    6KB vq=    0KB sq=    0B    0.38 M-A:  0.000 fd=   0 aq=    6KB vq=    0KB sq=    0B    0.41 M-A:  0.000 fd=   0 aq=    6KB vq=    0KB sq=    0B    0.45 M-A:  0.000 fd=   0 aq=    6KB vq=    0KB sq=    0B    0.47 M-A:  0.000 fd=   0 aq=    6KB vq=    0KB sq=    0B    0.50 M-A:  0.000 fd=   0 aq=    6KB vq=    0KB sq=    0B    0.54 M-A: -0.000 fd=   0 aq=    6KB vq=    0KB sq=    0B    0.58 M-A:  0.000 fd=   0 aq=    6KB vq=    0KB sq=    0B    0.60 M-A:  0.000 fd=   0 aq=    6KB vq=    0KB sq=    0B    0.64 M-A:  0.000 fd=   0 aq=    6KB vq=    0KB sq=    0B    0.68 M-A:  0.000 fd=   0 aq=    6KB vq=    0KB sq=    0B    0.71 M-A:  0.000 fd=   0 aq=    6KB vq=    0KB sq=    0B    0.75 M-A:  0.000 fd=   0 aq=    6KB vq=    0KB sq=    0B    0.77 M-A:  0.000 fd=   0 aq=    6KB vq=    0KB sq=    0B    0.80 M-A:  0.000 fd=   0 aq=    6KB vq=    0KB sq=    0B    0.84 M-A:  0.000 fd=   0 aq=    6KB vq=    0KB sq=    0B    0.87 M-A:  0.000 fd=   0 aq=    6KB vq=    0KB sq=    0B    0.90 M-A:  0.000 fd=   0 aq=    6KB vq=    0KB sq=    0B    0.94 M-A:  0.000 fd=   0 aq=    6KB vq=    0KB sq=    0B    0.96 M-A:  0.000 fd=   0 aq=    6KB vq=    0KB sq=    0B    0.99 M-A:  0.000 fd=   0 aq=    6KB vq=    0KB sq=    0B    1.03 M-A:  0.000 fd=   0 aq=    6KB vq=    0KB sq=    0B    1.06 M-A: -0.000 fd=   0 aq=    6KB vq=    0KB sq=    0B    1.09 M-A:  0.000 fd=   0 aq=    6KB vq=    0KB sq=    0B    1.12 M-A:  0.000 fd=   0 aq=    6KB vq=    0KB sq=    0B    1.15 M-A: -0.000 fd=   0 aq=    6KB vq=    0KB sq=    0B    1.18 M-A:  0.000 fd=   0 aq=    6KB vq=    0KB sq=    0B    1.22 M-A:  0.000 fd=   0 aq=    6KB vq=    0KB sq=    0B    1.24 M-A:  0.000 fd=   0 aq=    6KB vq=    0KB sq=    0B    1.27 M-A:  0.000 fd=   0 aq=    6KB vq=    0KB sq=    0B    1.30 M-A:  0.000 fd=   0 aq=    6KB vq=    0KB sq=    0B    1.34 M-A:  0.000 fd=   0 aq=    6KB vq=    0KB sq=    0B    1.37 M-A:  0.000 fd=   0 aq=    6KB vq=    0KB sq=    0B    1.40 M-A:  0.000 fd=   0 aq=    6KB vq=    0KB sq=    0B    1.43 M-A: -0.000 fd=   0 aq=    6KB vq=    0KB sq=    0B    1.46 M-A:  0.000 fd=   0 aq=    6KB vq=    0KB sq=    0B    1.50 M-A:  0.000 fd=   0 aq=    6KB vq=    0KB sq=    0B    1.53 M-A:  0.000 fd=   0 aq=    6KB vq=    0KB sq=    0B    1.56 M-A:  0.000 fd=   0 aq=    6KB vq=    0KB sq=    0B    1.59 M-A:  0.000 fd=   0 aq=    6KB vq=    0KB sq=    0B    1.62 M-A:  0.000 fd=   0 aq=    6KB vq=    0KB sq=    0B    1.65 M-A:  0.000 fd=   0 aq=    6KB vq=    0KB sq=    0B    1.69 M-A:  0.000 fd=   0 aq=    6KB vq=    0KB sq=    0B    1.72 M-A:  0.000 fd=   0 aq=    6KB vq=    0KB sq=    0B    1.75 M-A:  0.000 fd=   0 aq=    6KB vq=    0KB sq=    0B    1.77 M-A:  0.000 fd=   0 aq=    6KB vq=    0KB sq=    0B    1.81 M-A:  0.000 fd=   0 aq=    6KB vq=    0KB sq=    0B    1.84 M-A:  0.000 fd=   0 aq=    6KB vq=    0KB sq=    0B    1.87 M-A:  0.000 fd=   0 aq=    6KB vq=    0KB sq=    0B    1.90 M-A:  0.000 fd=   0 aq=    6KB vq=    0KB sq=    0B    1.93 M-A:  0.000 fd=   0 aq=    6KB vq=    0KB sq=    0B    1.97 M-A:  0.000 fd=   0 aq=    6KB vq=    0KB sq=    0B    2.00 M-A:  0.000 fd=   0 aq=    6KB vq=    0KB sq=    0B    2.03 M-A:  0.000 fd=   0 aq=    6KB vq=    0KB sq=    0B    2.05 M-A:  0.000 fd=   0 aq=    6KB vq=    0KB sq=    0B    2.09 M-A:  0.000 fd=   0 aq=    6KB vq=    0KB sq=    0B    2.12 M-A:  0.000 fd=   0 aq=    6KB vq=    0KB sq=    0B    2.15 M-A:  0.000 fd=   0 aq=    6KB vq=    0KB sq=    0B    2.19 M-A:  0.000 fd=   0 aq=    6KB vq=    0KB sq=    0B    2.22 M-A:  0.000 fd=   0 aq=    6KB vq=    0KB sq=    0B    2.24 M-A:  0.000 fd=   0 aq=    6KB vq=    0KB sq=    0B    2.28 M-A:  0.000 fd=   0 aq=    6KB vq=    0KB sq=    0B    2.31 M-A:  0.000 fd=   0 aq=    6KB vq=    0KB sq=    0B    2.34 M-A:  0.000 fd=   0 aq=    6KB vq=    0KB sq=    0B    2.37 M-A:  0.000 fd=   0 aq=    6KB vq=    0KB sq=    0B    2.40 M-A:  0.000 fd=   0 aq=    6KB vq=    0KB sq=    0B    2.43 M-A:  0.000 fd=   0 aq=    6KB vq=    0KB sq=    0B    2.46 M-A:  0.000 fd=   0 aq=    6KB vq=    0KB sq=    0B    2.50 M-A:  0.000 fd=   0 aq=    6KB vq=    0KB sq=    0B    2.52 M-A:  0.000 fd=   0 aq=    6KB vq=    0KB sq=    0B    2.55 M-A:  0.000 fd=   0 aq=    6KB vq=    0KB sq=    0B    2.59 M-A:  0.000 fd=   0 aq=    6KB vq=    0KB sq=    0B    2.62 M-A:  0.000 fd=   0 aq=    6KB vq=    0KB sq=    0B    2.66 M-A:  0.000 fd=   0 aq=    6KB vq=    0KB sq=    0B    2.69 M-A: -0.000 fd=   0 aq=    6KB vq=    0KB sq=    0B    2.71 M-A:  0.000 fd=   0 aq=    6KB vq=    0KB sq=    0B    2.75 M-A:  0.000 fd=   0 aq=    6KB vq=    0KB sq=    0B    2.78 M-A:  0.000 fd=   0 aq=    6KB vq=    0KB sq=    0B    2.81 M-A:  0.000 fd=   0 aq=    6KB vq=    0KB sq=    0B    2.84 M-A:  0.000 fd=   0 aq=    6KB vq=    0KB sq=    0B    2.87 M-A: -0.000 fd=   0 aq=    6KB vq=    0KB sq=    0B    2.90 M-A:  0.000 fd=   0 aq=    6KB vq=    0KB sq=    0B    2.93 M-A:  0.000 fd=   0 aq=    6KB vq=    0KB sq=    0B    2.97 M-A: -0.000 fd=   0 aq=    6KB vq=    0KB sq=    0B    3.00 M-A:  0.000 fd=   0 aq=    6KB vq=    0KB sq=    0B    3.03 M-A:  0.000 fd=   0 aq=    6KB vq=    0KB sq=    0B    3.05 M-A: -0.000 fd=   0 aq=    6KB vq=    0KB sq=    0B    3.09 M-A:  0.000 fd=   0 aq=    6KB vq=    0KB sq=    0B    3.12 M-A:  0.000 fd=   0 aq=    6KB vq=    0KB sq=    0B    3.15 M-A:  0.000 fd=   0 aq=    6KB vq=    0KB sq=    0B    3.18 M-A:  0.000 fd=   0 aq=    6KB vq=    0KB sq=    0B    3.21 M-A: -0.000 fd=   0 aq=    6KB vq=    0KB sq=    0B    3.24 M-A:  0.000 fd=   0 aq=    6KB vq=    0KB sq=    0B    3.28 M-A:  0.000 fd=   0 aq=    6KB vq=    0KB sq=    0B    3.31 M-A:  0.000 fd=   0 aq=    6KB vq=    0KB sq=    0B    3.33 M-A:  0.000 fd=   0 aq=    6KB vq=    0KB sq=    0B    3.36 M-A:  0.000 fd=   0 aq=    6KB vq=    0KB sq=    0B    3.40 M-A:  0.000 fd=   0 aq=    6KB vq=    0KB sq=    0B    3.43 M-A:  0.000 fd=   0 aq=    6KB vq=    0KB sq=    0B    3.47 M-A:  0.000 fd=   0 aq=    6KB vq=    0KB sq=    0B    3.50 M-A:  0.000 fd=   0 aq=    6KB vq=    0KB sq=    0B    3.52 M-A:  0.000 fd=   0 aq=    6KB vq=    0KB sq=    0B    3.55 M-A:  0.000 fd=   0 aq=    6KB vq=    0KB sq=    0B    3.59 M-A:  0.000 fd=   0 aq=    6KB vq=    0KB sq=    0B    3.62 M-A:  0.000 fd=   0 aq=    6KB vq=    0KB sq=    0B    3.65 M-A:  0.000 fd=   0 aq=    6KB vq=    0KB sq=    0B    3.68 M-A:  0.000 fd=   0 aq=    6KB vq=    0KB sq=    0B    3.71 M-A:  0.000 fd=   0 aq=    6KB vq=    0KB sq=    0B    3.74 M-A:  0.000 fd=   0 aq=    6KB vq=    0KB sq=    0B    3.77 M-A:  0.000 fd=   0 aq=    6KB vq=    0KB sq=    0B    3.80 M-A:  0.000 fd=   0 aq=    6KB vq=    0KB sq=    0B    3.83 M-A:  0.000 fd=   0 aq=    6KB vq=    0KB sq=    0B    3.86 M-A:  0.000 fd=   0 aq=    6KB vq=    0KB sq=    0B    3.90 M-A:  0.000 fd=   0 aq=    6KB vq=    0KB sq=    0B    3.93 M-A:  0.000 fd=   0 aq=    6KB vq=    0KB sq=    0B    3.96 M-A:  0.000 fd=   0 aq=    6KB vq=    0KB sq=    0B    3.98 M-A:  0.000 fd=   0 aq=    6KB vq=    0KB sq=    0B    4.02 M-A:  0.000 fd=   0 aq=    6KB vq=    0KB sq=    0B    4.05 M-A:  0.000 fd=   0 aq=    6KB vq=    0KB sq=    0B    4.09 M-A:  0.000 fd=   0 aq=    6KB vq=    0KB sq=    0B    4.13 M-A:  0.000 fd=   0 aq=    6KB vq=    0KB sq=    0B    4.15 M-A:  0.000 fd=   0 aq=    6KB vq=    0KB sq=    0B    4.18 M-A: -0.000 fd=   0 aq=    6KB vq=    0KB sq=    0B    4.22 M-A:  0.000 fd=   0 aq=    6KB vq=    0KB sq=    0B    4.25 M-A:  0.000 fd=   0 aq=    6KB vq=    0KB sq=    0B    4.28 M-A: -0.000 fd=   0 aq=    6KB vq=    0KB sq=    0B    4.31 M-A:  0.000 fd=   0 aq=    6KB vq=    0KB sq=    0B    4.34 M-A:  0.000 fd=   0 aq=    6KB vq=    0KB sq=    0B    4.37 M-A:  0.000 fd=   0 aq=    6KB vq=    0KB sq=    0B    4.41 M-A:  0.000 fd=   0 aq=    6KB vq=    0KB sq=    0B    4.44 M-A:  0.000 fd=   0 aq=    6KB vq=    0KB sq=    0B    4.46 M-A:  0.000 fd=   0 aq=    6KB vq=    0KB sq=    0B    4.50 M-A:  0.000 fd=   0 aq=    6KB vq=    0KB sq=    0B    4.53 M-A:  0.000 fd=   0 aq=    6KB vq=    0KB sq=    0B    4.56 M-A:  0.000 fd=   0 aq=    6KB vq=    0KB sq=    0B    4.59 M-A: -0.000 fd=   0 aq=    6KB vq=    0KB sq=    0B    4.62 M-A:  0.000 fd=   0 aq=    6KB vq=    0KB sq=    0B    4.65 M-A:  0.000 fd=   0 aq=    6KB vq=    0KB sq=    0B    4.68 M-A:  0.000 fd=   0 aq=    6KB vq=    0KB sq=    0B    4.72 M-A:  0.000 fd=   0 aq=    6KB vq=    0KB sq=    0B    4.75 M-A:  0.000 fd=   0 aq=    6KB vq=    0KB sq=    0B    4.78 M-A:  0.000 fd=   0 aq=    6KB vq=    0KB sq=    0B    4.80 M-A:  0.000 fd=   0 aq=    6KB vq=    0KB sq=    0B    4.84 M-A: -0.000 fd=   0 aq=    6KB vq=    0KB sq=    0B    4.87 M-A:  0.000 fd=   0 aq=    6KB vq=    0KB sq=    0B    4.91 M-A:  0.000 fd=   0 aq=    6KB vq=    0KB sq=    0B    4.94 M-A:  0.000 fd=   0 aq=    6KB vq=    0KB sq=    0B    4.96 M-A:  0.000 fd=   0 aq=    6KB vq=    0KB sq=    0B    5.00 M-A:  0.000 fd=   0 aq=    6KB vq=    0KB sq=    0B    5.03 M-A:  0.000 fd=   0 aq=    6KB vq=    0KB sq=    0B    5.06 M-A:  0.000 fd=   0 aq=    6KB vq=    0KB sq=    0B    5.09 M-A: -0.000 fd=   0 aq=    6KB vq=    0KB sq=    0B    5.12 M-A:  0.000 fd=   0 aq=    6KB vq=    0KB sq=    0B    5.15 M-A:  0.000 fd=   0 aq=    6KB vq=    0KB sq=    0B    5.18 M-A:  0.000 fd=   0 aq=    6KB vq=    0KB sq=    0B    5.22 M-A: -0.000 fd=   0 aq=    6KB vq=    0KB sq=    0B    5.25 M-A:  0.000 fd=   0 aq=    6KB vq=    0KB sq=    0B    5.27 M-A:  0.000 fd=   0 aq=    6KB vq=    0KB sq=    0B    5.31 M-A: -0.000 fd=   0 aq=    6KB vq=    0KB sq=    0B    5.34 M-A:  0.000 fd=   0 aq=    6KB vq=    0KB sq=    0B    5.37 M-A:  0.000 fd=   0 aq=    6KB vq=    0KB sq=    0B    5.41 M-A:  0.000 fd=   0 aq=    6KB vq=    0KB sq=    0B    5.43 M-A:  0.000 fd=   0 aq=    6KB vq=    0KB sq=    0B    5.46 M-A:  0.000 fd=   0 aq=    6KB vq=    0KB sq=    0B    5.50 M-A:  0.000 fd=   0 aq=    6KB vq=    0KB sq=    0B    5.53 M-A:  0.000 fd=   0 aq=    6KB vq=    0KB sq=    0B    5.56 M-A: -0.000 fd=   0 aq=    6KB vq=    0KB sq=    0B    5.60 M-A:  0.000 fd=   0 aq=    6KB vq=    0KB sq=    0B    5.62 M-A:  0.000 fd=   0 aq=    6KB vq=    0KB sq=    0B    5.65 M-A:  0.000 fd=   0 aq=    6KB vq=    0KB sq=    0B    5.69 M-A:  0.000 fd=   0 aq=    6KB vq=    0KB sq=    0B    5.72 M-A:  0.000 fd=   0 aq=    6KB vq=    0KB sq=    0B    5.75 M-A:  0.000 fd=   0 aq=    6KB vq=    0KB sq=    0B    5.79 M-A:  0.000 fd=   0 aq=    6KB vq=    0KB sq=    0B    5.82 M-A:  0.000 fd=   0 aq=    6KB vq=    0KB sq=    0B    5.86 M-A:  0.000 fd=   0 aq=    6KB vq=    0KB sq=    0B    5.89 M-A:  0.000 fd=   0 aq=    6KB vq=    0KB sq=    0B    5.91 M-A:  0.000 fd=   0 aq=    6KB vq=    0KB sq=    0B    5.95 M-A:  0.000 fd=   0 aq=    6KB vq=    0KB sq=    0B    5.98 M-A:  0.000 fd=   0 aq=    6KB vq=    0KB sq=    0B    6.01 M-A:  0.000 fd=   0 aq=    6KB vq=    0KB sq=    0B    6.04 M-A:  0.000 fd=   0 aq=    6KB vq=    0KB sq=    0B    6.07 M-A:  0.000 fd=   0 aq=    6KB vq=    0KB sq=    0B    6.10 M-A:  0.000 fd=   0 aq=    6KB vq=    0KB sq=    0B    6.13 M-A:  0.000 fd=   0 aq=    6KB vq=    0KB sq=    0B    6.17 M-A:  0.000 fd=   0 aq=    6KB vq=    0KB sq=    0B    6.20 M-A:  0.000 fd=   0 aq=    6KB vq=    0KB sq=    0B    6.23 M-A:  0.000 fd=   0 aq=    6KB vq=    0KB sq=    0B    6.25 M-A:  0.000 fd=   0 aq=    6KB vq=    0KB sq=    0B    6.29 M-A:  0.000 fd=   0 aq=    6KB vq=    0KB sq=    0B    6.32 M-A:  0.000 fd=   0 aq=    6KB vq=    0KB sq=    0B    6.35 M-A:  0.000 fd=   0 aq=    6KB vq=    0KB sq=    0B    6.38 M-A:  0.000 fd=   0 aq=    6KB vq=    0KB sq=    0B    6.41 M-A:  0.000 fd=   0 aq=    6KB vq=    0KB sq=    0B    6.45 M-A:  0.000 fd=   0 aq=    6KB vq=    0KB sq=    0B    6.48 M-A:  0.000 fd=   0 aq=    6KB vq=    0KB sq=    0B    6.51 M-A:  0.000 fd=   0 aq=    6KB vq=    0KB sq=    0B    6.54 M-A:  0.000 fd=   0 aq=    6KB vq=    0KB sq=    0B    6.57 M-A:  0.000 fd=   0 aq=    6KB vq=    0KB sq=    0B    6.60 M-A:  0.000 fd=   0 aq=    6KB vq=    0KB sq=    0B    6.63 M-A: -0.000 fd=   0 aq=    6KB vq=    0KB sq=    0B    6.67 M-A:  0.000 fd=   0 aq=    6KB vq=    0KB sq=    0B    6.70 M-A:  0.000 fd=   0 aq=    6KB vq=    0KB sq=    0B    6.72 M-A:  0.000 fd=   0 aq=    6KB vq=    0KB sq=    0B    6.76 M-A:  0.000 fd=   0 aq=    6KB vq=    0KB sq=    0B    6.79 M-A:  0.000 fd=   0 aq=    6KB vq=    0KB sq=    0B    6.82 M-A:  0.000 fd=   0 aq=    6KB vq=    0KB sq=    0B    6.86 M-A:  0.000 fd=   0 aq=    6KB vq=    0KB sq=    0B    6.88 M-A: -0.000 fd=   0 aq=    6KB vq=    0KB sq=    0B    6.91 M-A:  0.000 fd=   0 aq=    6KB vq=    0KB sq=    0B    6.95 M-A:  0.000 fd=   0 aq=    6KB vq=    0KB sq=    0B    6.98 M-A:  0.000 fd=   0 aq=    6KB vq=    0KB sq=    0B    7.00 M-A:  0.000 fd=   0 aq=    6KB vq=    0KB sq=    0B    7.03 M-A:  0.000 fd=   0 aq=    6KB vq=    0KB sq=    0B    7.07 M-A:  0.000 fd=   0 aq=    6KB vq=    0KB sq=    0B    7.10 M-A: -0.000 fd=   0 aq=    6KB vq=    0KB sq=    0B    7.14 M-A:  0.000 fd=   0 aq=    6KB vq=    0KB sq=    0B    7.17 M-A:  0.000 fd=   0 aq=    6KB vq=    0KB sq=    0B    7.19 M-A:  0.000 fd=   0 aq=    6KB vq=    0KB sq=    0B    7.22 M-A:  0.000 fd=   0 aq=    6KB vq=    0KB sq=    0B    7.26 M-A: -0.000 fd=   0 aq=    6KB vq=    0KB sq=    0B    7.29 M-A:  0.000 fd=   0 aq=    6KB vq=    0KB sq=    0B    7.32 M-A:  0.000 fd=   0 aq=    6KB vq=    0KB sq=    0B    7.37 M-A: -0.000 fd=   0 aq=    6KB vq=    0KB sq=    0B    7.40 M-A:  0.000 fd=   0 aq=    6KB vq=    0KB sq=    0B    7.44 M-A:  0.000 fd=   0 aq=    6KB vq=    0KB sq=    0B    7.47 M-A:  0.000 fd=   0 aq=    6KB vq=    0KB sq=    0B    7.50 M-A:  0.000 fd=   0 aq=    6KB vq=    0KB sq=    0B    7.52 M-A:  0.000 fd=   0 aq=    6KB vq=    0KB sq=    0B    7.56 M-A:  0.000 fd=   0 aq=    6KB vq=    0KB sq=    0B    7.59 M-A: -0.000 fd=   0 aq=    6KB vq=    0KB sq=    0B    7.62 M-A:  0.000 fd=   0 aq=    6KB vq=    0KB sq=    0B    7.65 M-A:  0.000 fd=   0 aq=    6KB vq=    0KB sq=    0B    7.68 M-A:  0.000 fd=   0 aq=    6KB vq=    0KB sq=    0B    7.71 M-A:  0.000 fd=   0 aq=    6KB vq=    0KB sq=    0B    7.75 M-A:  0.000 fd=   0 aq=    5KB vq=    0KB sq=    0B    7.78 M-A:  0.000 fd=   0 aq=    5KB vq=    0KB sq=    0B    7.81 M-A:  0.000 fd=   0 aq=    5KB vq=    0KB sq=    0B    7.83 M-A:  0.000 fd=   0 aq=    5KB vq=    0KB sq=    0B    7.89 M-A:  0.000 fd=   0 aq=    5KB vq=    0KB sq=    0B    7.92 M-A:  0.000 fd=   0 aq=    4KB vq=    0KB sq=    0B    7.95 M-A:  0.000 fd=   0 aq=    4KB vq=    0KB sq=    0B    7.99 M-A:  0.000 fd=   0 aq=    4KB vq=    0KB sq=    0B    8.01 M-A:  0.000 fd=   0 aq=    4KB vq=    0KB sq=    0B    8.04 M-A:  0.000 fd=   0 aq=    4KB vq=    0KB sq=    0B    8.08 M-A:  0.000 fd=   0 aq=    3KB vq=    0KB sq=    0B    8.11 M-A: -0.000 fd=   0 aq=    3KB vq=    0KB sq=    0B    8.14 M-A:  0.000 fd=   0 aq=    3KB vq=    0KB sq=    0B    8.17 M-A: -0.000 fd=   0 aq=    3KB vq=    0KB sq=    0B    8.20 M-A:  0.000 fd=   0 aq=    2KB vq=    0KB sq=    0B    8.24 M-A:  0.000 fd=   0 aq=    2KB vq=    0KB sq=    0B    8.28 M-A:  0.000 fd=   0 aq=    2KB vq=    0KB sq=    0B    8.30 M-A:  0.000 fd=   0 aq=    2KB vq=    0KB sq=    0B    8.34 M-A:  0.000 fd=   0 aq=    2KB vq=    0KB sq=    0B    8.37 M-A:  0.000 fd=   0 aq=    1KB vq=    0KB sq=    0B    8.40 M-A: -0.000 fd=   0 aq=    1KB vq=    0KB sq=    0B    8.43 M-A:  0.000 fd=   0 aq=    1KB vq=    0KB sq=    0B    8.46 M-A:  0.000 fd=   0 aq=    1KB vq=    0KB sq=    0B    8.49 M-A:  0.000 fd=   0 aq=    0KB vq=    0KB sq=    0B    8.52 M-A:  0.000 fd=   0 aq=    0KB vq=    0KB sq=    0B    8.56 M-A:  0.000 fd=   0 aq=    0KB vq=    0KB sq=    0B    8.59 M-A:  0.000 fd=   0 aq=    0KB vq=    0KB sq=    0B    8.62 M-A:  0.000 fd=   0 aq=    0KB vq=    0KB sq=    0B    8.64 M-A:  0.000 fd=   0 aq=    0KB vq=    0KB sq=    0B    8.68 M-A:  0.000 fd=   0 aq=    0KB vq=    0KB sq=    0B    8.71 M-A:  0.000 fd=   0 aq=    0KB vq=    0KB sq=    0B    8.74 M-A: -0.000 fd=   0 aq=    0KB vq=    0KB sq=    0B    8.78 M-A:  0.000 fd=   0 aq=    0KB vq=    0KB sq=    0B    8.80 M-A:  0.000 fd=   0 aq=    0KB vq=    0KB sq=    0B    8.84 M-A:  0.000 fd=   0 aq=    0KB vq=    0KB sq=    0B    8.87 M-A:  0.000 fd=   0 aq=    0KB vq=    0KB sq=    0B 
ffplay version 8.0.1-essentials_build-www.gyan.dev Copyright (c) 2003-2025 the FFmpeg developers
  built with gcc 15.2.0 (Rev8, Built by MSYS2 project)
  configuration: --enable-gpl --enable-version3 --enable-static --disable-w32threads --disable-autodetect --enable-fontconfig --enable-iconv --enable-gnutls --enable-libxml2 --enable-gmp --enable-bzlib --enable-lzma --enable-zlib --enable-libsrt --enable-libssh --enable-libzmq --enable-avisynth --enable-sdl2 --enable-libwebp --enable-libx264 --enable-libx265 --enable-libxvid --enable-libaom --enable-libopenjpeg --enable-libvpx --enable-mediafoundation --enable-libass --enable-libfreetype --enable-libfribidi --enable-libharfbuzz --enable-libvidstab --enable-libvmaf --enable-libzimg --enable-amf --enable-cuda-llvm --enable-cuvid --enable-dxva2 --enable-d3d11va --enable-d3d12va --enable-ffnvcodec --enable-libvpl --enable-nvdec --enable-nvenc --enable-vaapi --enable-openal --enable-libgme --enable-libopenmpt --enable-libopencore-amrwb --enable-libmp3lame --enable-libtheora --enable-libvo-amrwbenc --enable-libgsm --enable-libopencore-amrnb --enable-libopus --enable-libspeex --enable-libvorbis --enable-librubberband
  libavutil      60.  8.100 / 60.  8.100
  libavcodec     62. 11.100 / 62. 11.100
  libavformat    62.  3.100 / 62.  3.100
  libavdevice    62.  1.100 / 62.  1.100
  libavfilter    11.  4.100 / 11.  4.100
  libswscale      9.  1.100 /  9.  1.100
  libswresample   6.  1.100 /  6.  1.100
    nan    :  0.000 fd=   0 aq=    0KB vq=    0KB sq=    0B [mp3 @ 000001ecb146d380] Estimating duration from bitrate, this may be inaccurate
Input #0, mp3, from 'c:\Users\zfj-AUTHOR\Desktop\VSC\Cluster-20251215T135848Z-1-001\Cluster\controller\resource\tts_temp\tts_53336402204c4e5f8d19a4c70ec4aa21.mp3':
  Duration: 00:00:02.26, start: 0.000000, bitrate: 48 kb/s
  Stream #0:0: Audio: mp3 (mp3float), 24000 Hz, mono, fltp, 48 kb/s
    nan M-A:    nan fd=   0 aq=    6KB vq=    0KB sq=    0B   -0.02 M-A:  0.000 fd=   0 aq=    6KB vq=    0KB sq=    0B    0.01 M-A:  0.000 fd=   0 aq=    6KB vq=    0KB sq=    0B    0.05 M-A:  0.000 fd=   0 aq=    6KB vq=    0KB sq=    0B    0.08 M-A:  0.000 fd=   0 aq=    6KB vq=    0KB sq=    0B    0.10 M-A:  0.000 fd=   0 aq=    6KB vq=    0KB sq=    0B    0.13 M-A:  0.000 fd=   0 aq=    6KB vq=    0KB sq=    0B    0.16 M-A:  0.000 fd=   0 aq=    6KB vq=    0KB sq=    0B    0.20 M-A:  0.000 fd=   0 aq=    6KB vq=    0KB sq=    0B    0.23 M-A: -0.000 fd=   0 aq=    6KB vq=    0KB sq=    0B    0.26 M-A:  0.000 fd=   0 aq=    6KB vq=    0KB sq=    0B    0.29 M-A:  0.000 fd=   0 aq=    6KB vq=    0KB sq=    0B    0.32 M-A: -0.000 fd=   0 aq=    6KB vq=    0KB sq=    0B    0.35 M-A:  0.000 fd=   0 aq=    6KB vq=    0KB sq=    0B    0.39 M-A:  0.000 fd=   0 aq=    6KB vq=    0KB sq=    0B    0.42 M-A:  0.000 fd=   0 aq=    6KB vq=    0KB sq=    0B    0.44 M-A: -0.000 fd=   0 aq=    6KB vq=    0KB sq=    0B    0.47 M-A:  0.000 fd=   0 aq=    6KB vq=    0KB sq=    0B    0.51 M-A: -0.000 fd=   0 aq=    6KB vq=    0KB sq=    0B    0.54 M-A: -0.000 fd=   0 aq=    6KB vq=    0KB sq=    0B    0.56 M-A:  0.000 fd=   0 aq=    6KB vq=    0KB sq=    0B    0.60 M-A:  0.000 fd=   0 aq=    6KB vq=    0KB sq=    0B    0.63 M-A:  0.000 fd=   0 aq=    6KB vq=    0KB sq=    0B    0.66 M-A:  0.000 fd=   0 aq=    6KB vq=    0KB sq=    0B    0.70 M-A:  0.000 fd=   0 aq=    6KB vq=    0KB sq=    0B    0.73 M-A:  0.000 fd=   0 aq=    6KB vq=    0KB sq=    0B    0.75 M-A:  0.000 fd=   0 aq=    6KB vq=    0KB sq=    0B    0.79 M-A:  0.000 fd=   0 aq=    6KB vq=    0KB sq=    0B    0.82 M-A:  0.000 fd=   0 aq=    6KB vq=    0KB sq=    0B    0.86 M-A:  0.000 fd=   0 aq=    6KB vq=    0KB sq=    0B    0.89 M-A:  0.000 fd=   0 aq=    6KB vq=    0KB sq=    0B    0.91 M-A:  0.000 fd=   0 aq=    6KB vq=    0KB sq=    0B    0.94 M-A:  0.000 fd=   0 aq=    6KB vq=    0KB sq=    0B    0.97 M-A:  0.000 fd=   0 aq=    6KB vq=    0KB sq=    0B    1.01 M-A:  0.000 fd=   0 aq=    6KB vq=    0KB sq=    0B    1.04 M-A:  0.000 fd=   0 aq=    5KB vq=    0KB sq=    0B    1.07 M-A: -0.000 fd=   0 aq=    5KB vq=    0KB sq=    0B    1.10 M-A:  0.000 fd=   0 aq=    5KB vq=    0KB sq=    0B    1.13 M-A:  0.000 fd=   0 aq=    5KB vq=    0KB sq=    0B    1.16 M-A:  0.000 fd=   0 aq=    5KB vq=    0KB sq=    0B    1.20 M-A:  0.000 fd=   0 aq=    5KB vq=    0KB sq=    0B    1.22 M-A: -0.000 fd=   0 aq=    4KB vq=    0KB sq=    0B    1.25 M-A:  0.000 fd=   0 aq=    4KB vq=    0KB sq=    0B    1.29 M-A:  0.000 fd=   0 aq=    4KB vq=    0KB sq=    0B    1.32 M-A:  0.000 fd=   0 aq=    4KB vq=    0KB sq=    0B    1.36 M-A:  0.000 fd=   0 aq=    4KB vq=    0KB sq=    0B    1.38 M-A:  0.000 fd=   0 aq=    3KB vq=    0KB sq=    0B    1.42 M-A:  0.000 fd=   0 aq=    3KB vq=    0KB sq=    0B    1.45 M-A:  0.000 fd=   0 aq=    3KB vq=    0KB sq=    0B    1.48 M-A:  0.000 fd=   0 aq=    3KB vq=    0KB sq=    0B    1.52 M-A:  0.000 fd=   0 aq=    2KB vq=    0KB sq=    0B    1.54 M-A:  0.000 fd=   0 aq=    2KB vq=    0KB sq=    0B    1.57 M-A:  0.000 fd=   0 aq=    2KB vq=    0KB sq=    0B    1.61 M-A: -0.000 fd=   0 aq=    2KB vq=    0KB sq=    0B    1.64 M-A:  0.000 fd=   0 aq=    2KB vq=    0KB sq=    0B    1.67 M-A:  0.000 fd=   0 aq=    1KB vq=    0KB sq=    0B    1.71 M-A:  0.000 fd=   0 aq=    1KB vq=    0KB sq=    0B    1.73 M-A:  0.000 fd=   0 aq=    1KB vq=    0KB sq=    0B    1.76 M-A:  0.000 fd=   0 aq=    1KB vq=    0KB sq=    0B    1.80 M-A:  0.000 fd=   0 aq=    0KB vq=    0KB sq=    0B    1.83 M-A:  0.000 fd=   0 aq=    0KB vq=    0KB sq=    0B    1.85 M-A:  0.000 fd=   0 aq=    0KB vq=    0KB sq=    0B    1.89 M-A: -0.000 fd=   0 aq=    0KB vq=    0KB sq=    0B    1.92 M-A:  0.000 fd=   0 aq=    0KB vq=    0KB sq=    0B    1.95 M-A:  0.000 fd=   0 aq=    0KB vq=    0KB sq=    0B    1.98 M-A:  0.000 fd=   0 aq=    0KB vq=    0KB sq=    0B    2.01 M-A:  0.000 fd=   0 aq=    0KB vq=    0KB sq=    0B    2.04 M-A:  0.000 fd=   0 aq=    0KB vq=    0KB sq=    0B    2.07 M-A:  0.000 fd=   0 aq=    0KB vq=    0KB sq=    0B    2.11 M-A:  0.000 fd=   0 aq=    0KB vq=    0KB sq=    0B    2.14 M-A:  0.000 fd=   0 aq=    0KB vq=    0KB sq=    0B    2.17 M-A:  0.000 fd=   0 aq=    0KB vq=    0KB sq=    0B    2.20 M-A:  0.000 fd=   0 aq=    0KB vq=    0KB sq=    0B 
ffplay version 8.0.1-essentials_build-www.gyan.dev Copyright (c) 2003-2025 the FFmpeg developers
  built with gcc 15.2.0 (Rev8, Built by MSYS2 project)
  configuration: --enable-gpl --enable-version3 --enable-static --disable-w32threads --disable-autodetect --enable-fontconfig --enable-iconv --enable-gnutls --enable-libxml2 --enable-gmp --enable-bzlib --enable-lzma --enable-zlib --enable-libsrt --enable-libssh --enable-libzmq --enable-avisynth --enable-sdl2 --enable-libwebp --enable-libx264 --enable-libx265 --enable-libxvid --enable-libaom --enable-libopenjpeg --enable-libvpx --enable-mediafoundation --enable-libass --enable-libfreetype --enable-libfribidi --enable-libharfbuzz --enable-libvidstab --enable-libvmaf --enable-libzimg --enable-amf --enable-cuda-llvm --enable-cuvid --enable-dxva2 --enable-d3d11va --enable-d3d12va --enable-ffnvcodec --enable-libvpl --enable-nvdec --enable-nvenc --enable-vaapi --enable-openal --enable-libgme --enable-libopenmpt --enable-libopencore-amrwb --enable-libmp3lame --enable-libtheora --enable-libvo-amrwbenc --enable-libgsm --enable-libopencore-amrnb --enable-libopus --enable-libspeex --enable-libvorbis --enable-librubberband
  libavutil      60.  8.100 / 60.  8.100
  libavcodec     62. 11.100 / 62. 11.100
  libavformat    62.  3.100 / 62.  3.100
  libavdevice    62.  1.100 / 62.  1.100
  libavfilter    11.  4.100 / 11.  4.100
  libswscale      9.  1.100 /  9.  1.100
  libswresample   6.  1.100 /  6.  1.100
    nan    :  0.000 fd=   0 aq=    0KB vq=    0KB sq=    0B [mp3 @ 000001fb65cdd380] Estimating duration from bitrate, this may be inaccurate
Input #0, mp3, from 'c:\Users\zfj-AUTHOR\Desktop\VSC\Cluster-20251215T135848Z-1-001\Cluster\controller\resource\tts_temp\tts_4644a498bb9c40abb0a0f03b4317fed3.mp3':
  Duration: 00:00:02.09, start: 0.000000, bitrate: 48 kb/s
  Stream #0:0: Audio: mp3 (mp3float), 24000 Hz, mono, fltp, 48 kb/s
    nan M-A:    nan fd=   0 aq=    6KB vq=    0KB sq=    0B   -0.03 M-A:  0.000 fd=   0 aq=    6KB vq=    0KB sq=    0B    0.01 M-A:  0.000 fd=   0 aq=    6KB vq=    0KB sq=    0B    0.04 M-A: -0.000 fd=   0 aq=    6KB vq=    0KB sq=    0B    0.07 M-A:  0.000 fd=   0 aq=    6KB vq=    0KB sq=    0B    0.10 M-A:  0.000 fd=   0 aq=    6KB vq=    0KB sq=    0B    0.13 M-A:  0.000 fd=   0 aq=    6KB vq=    0KB sq=    0B    0.16 M-A:  0.000 fd=   0 aq=    6KB vq=    0KB sq=    0B    0.19 M-A:  0.000 fd=   0 aq=    6KB vq=    0KB sq=    0B    0.23 M-A:  0.000 fd=   0 aq=    6KB vq=    0KB sq=    0B    0.26 M-A:  0.000 fd=   0 aq=    6KB vq=    0KB sq=    0B    0.28 M-A:  0.000 fd=   0 aq=    6KB vq=    0KB sq=    0B    0.32 M-A:  0.000 fd=   0 aq=    6KB vq=    0KB sq=    0B    0.35 M-A:  0.000 fd=   0 aq=    6KB vq=    0KB sq=    0B    0.38 M-A:  0.000 fd=   0 aq=    6KB vq=    0KB sq=    0B    0.41 M-A:  0.000 fd=   0 aq=    6KB vq=    0KB sq=    0B    0.44 M-A:  0.000 fd=   0 aq=    6KB vq=    0KB sq=    0B    0.47 M-A:  0.000 fd=   0 aq=    6KB vq=    0KB sq=    0B    0.50 M-A:  0.000 fd=   0 aq=    6KB vq=    0KB sq=    0B    0.54 M-A:  0.000 fd=   0 aq=    6KB vq=    0KB sq=    0B    0.56 M-A:  0.000 fd=   0 aq=    6KB vq=    0KB sq=    0B    0.61 M-A:  0.000 fd=   0 aq=    6KB vq=    0KB sq=    0B    0.64 M-A:  0.000 fd=   0 aq=    6KB vq=    0KB sq=    0B    0.67 M-A:  0.000 fd=   0 aq=    6KB vq=    0KB sq=    0B    0.71 M-A:  0.000 fd=   0 aq=    6KB vq=    0KB sq=    0B    0.73 M-A:  0.000 fd=   0 aq=    6KB vq=    0KB sq=    0B    0.76 M-A:  0.000 fd=   0 aq=    6KB vq=    0KB sq=    0B    0.79 M-A: -0.000 fd=   0 aq=    6KB vq=    0KB sq=    0B    0.83 M-A:  0.000 fd=   0 aq=    6KB vq=    0KB sq=    0B    0.86 M-A: -0.000 fd=   0 aq=    5KB vq=    0KB sq=    0B    0.90 M-A:  0.000 fd=   0 aq=    5KB vq=    0KB sq=    0B    0.92 M-A:  0.000 fd=   0 aq=    5KB vq=    0KB sq=    0B    0.95 M-A: -0.000 fd=   0 aq=    5KB vq=    0KB sq=    0B    0.99 M-A: -0.000 fd=   0 aq=    5KB vq=    0KB sq=    0B    1.02 M-A: -0.000 fd=   0 aq=    5KB vq=    0KB sq=    0B    1.05 M-A:  0.000 fd=   0 aq=    4KB vq=    0KB sq=    0B    1.08 M-A:  0.000 fd=   0 aq=    4KB vq=    0KB sq=    0B    1.11 M-A:  0.000 fd=   0 aq=    4KB vq=    0KB sq=    0B    1.14 M-A:  0.000 fd=   0 aq=    4KB vq=    0KB sq=    0B    1.18 M-A:  0.000 fd=   0 aq=    4KB vq=    0KB sq=    0B    1.20 M-A:  0.000 fd=   0 aq=    3KB vq=    0KB sq=    0B    1.23 M-A:  0.000 fd=   0 aq=    3KB vq=    0KB sq=    0B    1.26 M-A: -0.000 fd=   0 aq=    3KB vq=    0KB sq=    0B    1.30 M-A: -0.000 fd=   0 aq=    3KB vq=    0KB sq=    0B    1.33 M-A:  0.000 fd=   0 aq=    2KB vq=    0KB sq=    0B    1.36 M-A:  0.000 fd=   0 aq=    2KB vq=    0KB sq=    0B    1.39 M-A:  0.000 fd=   0 aq=    2KB vq=    0KB sq=    0B    1.42 M-A:  0.000 fd=   0 aq=    2KB vq=    0KB sq=    0B    1.46 M-A:  0.000 fd=   0 aq=    2KB vq=    0KB sq=    0B    1.50 M-A:  0.000 fd=   0 aq=    1KB vq=    0KB sq=    0B    1.53 M-A:  0.000 fd=   0 aq=    1KB vq=    0KB sq=    0B    1.55 M-A:  0.000 fd=   0 aq=    1KB vq=    0KB sq=    0B    1.58 M-A:  0.000 fd=   0 aq=    1KB vq=    0KB sq=    0B    1.62 M-A:  0.000 fd=   0 aq=    1KB vq=    0KB sq=    0B    1.65 M-A:  0.000 fd=   0 aq=    0KB vq=    0KB sq=    0B    1.68 M-A:  0.000 fd=   0 aq=    0KB vq=    0KB sq=    0B    1.71 M-A:  0.000 fd=   0 aq=    0KB vq=    0KB sq=    0B    1.74 M-A:  0.000 fd=   0 aq=    0KB vq=    0KB sq=    0B    1.77 M-A:  0.000 fd=   0 aq=    0KB vq=    0KB sq=    0B    1.81 M-A:  0.000 fd=   0 aq=    0KB vq=    0KB sq=    0B    1.84 M-A:  0.000 fd=   0 aq=    0KB vq=    0KB sq=    0B    1.86 M-A:  0.000 fd=   0 aq=    0KB vq=    0KB sq=    0B    1.90 M-A: -0.000 fd=   0 aq=    0KB vq=    0KB sq=    0B    1.93 M-A:  0.000 fd=   0 aq=    0KB vq=    0KB sq=    0B    1.96 M-A:  0.000 fd=   0 aq=    0KB vq=    0KB sq=    0B    1.99 M-A:  0.000 fd=   0 aq=    0KB vq=    0KB sq=    0B    2.03 M-A: -0.000 fd=   0 aq=    0KB vq=    0KB sq=    0B 
